<svg width="347" height="199" viewBox="0 0 347 199" fill="none" xmlns="http://www.w3.org/2000/svg">
<path d="M164.304 12.9905C163.548 13.2994 162.809 13.6167 162.07 13.9507C188.6 4.67433 218.086 17.5493 228.818 43.5581C239.551 69.5585 227.567 99.1241 202.028 110.797C202.793 110.53 203.557 110.254 204.313 109.945C231.413 99.0406 244.439 68.4897 233.387 41.7128C222.343 14.9359 191.413 2.07763 164.304 12.9905Z" fill="#CFE0C3"/>
<path d="M147.138 108.801C146.416 108.258 145.719 107.699 145.03 107.122L160.718 74.4424H147.256L130.93 108.442C133.113 110.679 135.44 112.75 137.9 114.637V114.645C137.926 114.662 137.951 114.679 137.976 114.704C137.976 114.704 137.976 114.704 137.984 114.704C138.379 115.013 138.774 115.305 139.177 115.606C139.303 115.689 139.429 115.781 139.555 115.864C139.832 116.065 140.101 116.265 140.386 116.457C140.428 116.482 140.462 116.516 140.504 116.541C141.226 117.042 141.957 117.526 142.704 118.002L147.138 108.801Z" fill="white"/>
<path d="M162.859 117.355C162.044 117.063 161.238 116.745 160.44 116.411L191.018 52.9551H177.556L145.425 119.634C148.028 121.112 150.732 122.406 153.512 123.517H153.504C153.52 123.525 153.537 123.525 153.554 123.534C153.789 123.625 154.024 123.717 154.259 123.809C154.486 123.893 154.713 123.984 154.948 124.068C155.166 124.151 155.385 124.227 155.603 124.31C155.855 124.394 156.099 124.485 156.351 124.577C156.393 124.586 156.443 124.602 156.485 124.619C157.308 124.903 158.139 125.17 158.979 125.421L162.859 117.355Z" fill="white"/>
<path d="M128.066 84.1124C115.544 53.7786 130.3 19.1698 161.003 6.81254C177.295 0.258156 194.806 1.2768 209.527 8.21526C192.899 -0.994272 172.332 -2.90631 153.302 4.75855C120.121 18.1094 104.181 55.507 117.702 88.2789C120.432 94.8833 124.152 100.803 128.62 105.93L133.902 94.9251C131.626 91.5936 129.661 87.9783 128.066 84.1124Z" fill="#89B7AA"/>
<path d="M206.319 116.65C197.089 120.365 187.465 121.643 178.185 120.8L218.001 38.1309H204.539L162.078 126.277C165.093 127.02 168.158 127.554 171.265 127.863C171.299 127.872 171.332 127.872 171.366 127.872C171.945 127.93 172.533 127.98 173.113 128.022C173.272 128.039 173.432 128.039 173.591 128.055C173.944 128.072 174.297 128.097 174.658 128.114C183.82 128.556 193.218 127.087 202.271 123.446C221.301 115.781 234.654 100.218 240.037 82.1496C234.411 97.2706 222.611 110.095 206.319 116.65Z" fill="white"/>
<path d="M27.6802 197.852L25.799 190.705H13.3362L11.3879 197.852H0L12.53 159.544H26.3365L39.0345 197.852H27.6802ZM23.6491 182.255L22.0031 175.976C21.6168 174.599 21.1465 172.803 20.5922 170.599C20.0295 168.378 19.66 166.783 19.4836 165.823C19.3241 166.717 19.0133 168.186 18.5431 170.232C18.0896 172.261 17.0734 176.269 15.4861 182.255H23.6491Z" fill="white"/>
<path d="M81.8568 197.855H69.8643L62.4068 185.932L54.9828 197.855H43.259L55.9906 178.35L44.0317 159.714H55.5203L62.4404 171.504L69.1253 159.714H80.9498L68.7893 179.152L81.8568 197.855Z" fill="white"/>
<path d="M113.098 197.855H90.2891V159.714H113.098V167.964H100.669V173.975H112.158V182.258H100.669V189.439H113.098V197.855Z" fill="white"/>
<path d="M160.47 197.855H146.865L132.857 170.97H132.622C132.958 175.203 133.126 178.434 133.126 180.655V197.855H123.921V159.714H137.493L151.434 186.232H151.602C151.35 182.383 151.232 179.286 151.232 176.948V159.714H160.47V197.855Z" fill="white"/>
<path d="M172.878 197.855V159.714H183.258V189.539H198.039V197.855H172.878Z" fill="white"/>
<path d="M208.295 197.855V159.714H218.742V197.855H208.295Z" fill="white"/>
<path d="M246.562 175.514H263.123V196.087C258.622 197.623 253.684 198.391 248.309 198.391C242.397 198.391 237.811 196.688 234.57 193.281C231.345 189.858 229.732 184.99 229.732 178.686C229.732 172.524 231.496 167.723 235.04 164.292C238.576 160.868 243.522 159.148 249.888 159.148C252.307 159.148 254.574 159.382 256.707 159.85C258.857 160.301 260.738 160.868 262.351 161.553L259.059 169.635C256.279 168.3 253.247 167.632 249.955 167.632C246.932 167.632 244.589 168.617 242.934 170.571C241.271 172.508 240.448 175.305 240.448 178.954C240.448 182.519 241.196 185.232 242.699 187.103C244.194 188.973 246.344 189.908 249.149 189.908C250.694 189.908 252.113 189.758 253.415 189.441V183.496H246.562V175.514Z" fill="white"/>
<path d="M307.949 197.855H297.535V182.291H285.509V197.855H275.062V159.714H285.509V173.842H297.535V159.714H307.949V197.855Z" fill="white"/>
<path d="M337.301 197.855H326.955V168.131H317.583V159.714H346.64V168.131H337.301V197.855Z" fill="white"/>
</svg>
