<svg width="31" height="31" viewBox="0 0 31 31" fill="none" xmlns="http://www.w3.org/2000/svg">
<path d="M15.0693 0.696289C19.0476 0.696289 22.8629 2.27664 25.6759 5.08969C28.489 7.90273 30.0693 11.718 30.0693 15.6963C30.0693 19.6745 28.489 23.4898 25.6759 26.3029C22.8629 29.1159 19.0476 30.6963 15.0693 30.6963C11.0911 30.6963 7.27578 29.1159 4.46273 26.3029C1.64969 23.4898 0.0693359 19.6745 0.0693359 15.6963C0.0693359 11.718 1.64969 7.90273 4.46273 5.08969C7.27578 2.27664 11.0911 0.696289 15.0693 0.696289V0.696289ZM8.50684 14.7588C8.2582 14.7588 8.01974 14.8576 7.84392 15.0334C7.66811 15.2092 7.56934 15.4476 7.56934 15.6963C7.56934 15.9449 7.66811 16.1834 7.84392 16.3592C8.01974 16.535 8.2582 16.6338 8.50684 16.6338H19.3687L15.3431 20.6575C15.2559 20.7447 15.1868 20.8482 15.1396 20.9621C15.0924 21.076 15.0682 21.198 15.0682 21.3213C15.0682 21.4446 15.0924 21.5666 15.1396 21.6805C15.1868 21.7944 15.2559 21.8979 15.3431 21.985C15.4303 22.0722 15.5337 22.1413 15.6476 22.1885C15.7615 22.2357 15.8836 22.26 16.0068 22.26C16.1301 22.26 16.2522 22.2357 16.3661 22.1885C16.4799 22.1413 16.5834 22.0722 16.6706 21.985L22.2956 16.36C22.3829 16.273 22.4522 16.1695 22.4994 16.0556C22.5467 15.9417 22.571 15.8196 22.571 15.6963C22.571 15.573 22.5467 15.4509 22.4994 15.337C22.4522 15.2231 22.3829 15.1196 22.2956 15.0325L16.6706 9.40754C16.5834 9.32037 16.4799 9.25123 16.3661 9.20406C16.2522 9.15688 16.1301 9.1326 16.0068 9.1326C15.8836 9.1326 15.7615 9.15688 15.6476 9.20406C15.5337 9.25123 15.4303 9.32037 15.3431 9.40754C15.2559 9.4947 15.1868 9.59818 15.1396 9.71207C15.0924 9.82596 15.0682 9.94802 15.0682 10.0713C15.0682 10.1946 15.0924 10.3166 15.1396 10.4305C15.1868 10.5444 15.2559 10.6479 15.3431 10.735L19.3687 14.7588H8.50684Z" fill="#115292"/>
</svg>
