<svg width="31" height="31" viewBox="0 0 31 31" fill="none" xmlns="http://www.w3.org/2000/svg">
<path d="M15.1667 0.0488281C19.145 0.0488281 22.9603 1.62918 25.7733 4.44223C28.5864 7.25527 30.1667 11.0706 30.1667 15.0488C30.1667 19.0271 28.5864 22.8424 25.7733 25.6554C22.9603 28.4685 19.145 30.0488 15.1667 30.0488C11.1885 30.0488 7.37319 28.4685 4.56015 25.6554C1.7471 22.8424 0.166748 19.0271 0.166748 15.0488C0.166748 11.0706 1.7471 7.25527 4.56015 4.44223C7.37319 1.62918 11.1885 0.0488281 15.1667 0.0488281V0.0488281ZM8.60425 14.1113C8.35561 14.1113 8.11715 14.2101 7.94134 14.3859C7.76552 14.5617 7.66675 14.8002 7.66675 15.0488C7.66675 15.2975 7.76552 15.5359 7.94134 15.7117C8.11715 15.8876 8.35561 15.9863 8.60425 15.9863H19.4661L15.4405 20.0101C15.3533 20.0972 15.2842 20.2007 15.237 20.3146C15.1898 20.4285 15.1656 20.5506 15.1656 20.6738C15.1656 20.7971 15.1898 20.9192 15.237 21.033C15.2842 21.1469 15.3533 21.2504 15.4405 21.3376C15.5277 21.4247 15.6311 21.4939 15.745 21.5411C15.8589 21.5882 15.981 21.6125 16.1042 21.6125C16.2275 21.6125 16.3496 21.5882 16.4635 21.5411C16.5774 21.4939 16.6808 21.4247 16.768 21.3376L22.393 15.7126C22.4803 15.6255 22.5496 15.522 22.5968 15.4081C22.6441 15.2942 22.6684 15.1721 22.6684 15.0488C22.6684 14.9255 22.6441 14.8034 22.5968 14.6895C22.5496 14.5756 22.4803 14.4722 22.393 14.3851L16.768 8.76008C16.6808 8.67291 16.5774 8.60377 16.4635 8.5566C16.3496 8.50942 16.2275 8.48514 16.1042 8.48514C15.981 8.48514 15.8589 8.50942 15.745 8.5566C15.6311 8.60377 15.5277 8.67291 15.4405 8.76008C15.3533 8.84724 15.2842 8.95072 15.237 9.06461C15.1898 9.1785 15.1656 9.30056 15.1656 9.42383C15.1656 9.5471 15.1898 9.66916 15.237 9.78305C15.2842 9.89693 15.3533 10.0004 15.4405 10.0876L19.4661 14.1113H8.60425Z" fill="white"/>
</svg>
