<svg width="290" height="116" viewBox="0 0 290 116" fill="none" xmlns="http://www.w3.org/2000/svg">
<path d="M95.7058 41.2881C95.0146 41.2881 94.3366 40.9192 93.9555 40.2551C93.3751 39.2544 93.6897 37.9493 94.6556 37.3498L112.836 25.9959C113.625 25.5024 114.657 25.6269 115.326 26.3141L123.112 34.4214L159.424 11.2201C160.203 10.7221 161.2 10.8235 161.865 11.4646L168.693 17.9762L192.519 3.62013C193.485 3.03445 194.734 3.3711 195.301 4.39028C195.869 5.40484 195.536 6.70533 194.562 7.29101L169.442 22.4311C168.671 22.8922 167.701 22.7862 167.041 22.1544L160.248 15.6704L123.878 38.9085C123.072 39.4204 122.039 39.3005 121.37 38.6041L113.572 30.4876L96.7515 40.9884C96.4236 41.1913 96.0647 41.2881 95.7058 41.2881Z" fill="#115292"/>
<path d="M189.134 21.0804C188.916 21.0804 188.695 21.0435 188.478 20.9697C187.414 20.5916 186.843 19.3833 187.202 18.2765L190.884 6.99642L179.306 4.19254C178.211 3.92506 177.524 2.78137 177.777 1.64229C178.034 0.507826 179.115 -0.211592 180.227 0.0558845L194.003 3.39011C194.562 3.52846 195.04 3.90662 195.319 4.42312C195.603 4.94885 195.652 5.57603 195.47 6.14327L191.065 19.6416C190.773 20.527 189.98 21.0804 189.134 21.0804Z" fill="#115292"/>
<path d="M96.601 77.0429C95.4711 77.0429 94.5627 76.0929 94.5627 74.9216V52.4905C94.5627 51.3191 95.4711 50.3691 96.601 50.3691C97.7265 50.3691 98.6393 51.3191 98.6393 52.4905V74.9216C98.6393 76.0929 97.7265 77.0429 96.601 77.0429Z" fill="#115292"/>
<path d="M111.418 77.0425C110.288 77.0425 109.38 76.0925 109.38 74.9211V44.8209C109.38 43.6495 110.288 42.7041 111.418 42.7041C112.544 42.7041 113.456 43.6495 113.456 44.8209V74.9211C113.456 76.0925 112.544 77.0425 111.418 77.0425Z" fill="#115292"/>
<path d="M126.231 77.0441C125.106 77.0441 124.193 76.0941 124.193 74.9227V49.0559C124.193 47.8846 125.106 46.9346 126.231 46.9346C127.357 46.9346 128.269 47.8846 128.269 49.0559V74.9227C128.269 76.0941 127.357 77.0441 126.231 77.0441Z" fill="#115292"/>
<path d="M141.048 77.0428C139.918 77.0428 139.01 76.0928 139.01 74.9214V39.1673C139.01 37.9959 139.918 37.0459 141.048 37.0459C142.174 37.0459 143.087 37.9959 143.087 39.1673V74.9214C143.087 76.0928 142.174 77.0428 141.048 77.0428Z" fill="#115292"/>
<path d="M155.866 77.0426C154.736 77.0426 153.827 76.0926 153.827 74.9212V31.3411C153.827 30.1697 154.736 29.2197 155.866 29.2197C156.991 29.2197 157.904 30.1697 157.904 31.3411V74.9212C157.904 76.0926 156.991 77.0426 155.866 77.0426Z" fill="#115292"/>
<path d="M170.683 77.043C169.553 77.043 168.645 76.093 168.645 74.9216V37.1614C168.645 35.9854 169.553 35.04 170.683 35.04C171.808 35.04 172.721 35.9854 172.721 37.1614V74.9216C172.721 76.093 171.808 77.043 170.683 77.043Z" fill="#115292"/>
<path d="M185.496 77.0426C184.366 77.0426 183.458 76.0926 183.458 74.9212V31.3411C183.458 30.1697 184.366 29.2197 185.496 29.2197C186.621 29.2197 187.534 30.1697 187.534 31.3411V74.9212C187.534 76.0926 186.621 77.0426 185.496 77.0426Z" fill="#115292"/>
<path d="M9.76593 98.6776C8.46322 98.6776 7.44852 99.231 6.7174 100.338C5.98186 101.445 5.61851 102.976 5.61851 104.931C5.61851 108.98 7.09847 111 10.0672 111C10.9623 111 11.8308 110.871 12.6727 110.613C13.5101 110.354 14.3565 110.041 15.2072 109.672V114.486C13.5146 115.275 11.6092 115.667 9.48235 115.667C6.42053 115.667 4.07652 114.745 2.44591 112.9C0.815305 111.055 0 108.39 0 104.894C0 102.717 0.394359 100.808 1.18751 99.1572C1.97623 97.497 3.11056 96.2242 4.59052 95.3388C6.07934 94.4441 7.82072 93.9922 9.81911 93.9922C12.0036 93.9922 14.095 94.4902 16.0934 95.4864L14.4274 99.9689C13.6696 99.6 12.9208 99.2956 12.1764 99.0466C11.432 98.8021 10.6255 98.6776 9.76593 98.6776Z" fill="#115292"/>
<path d="M44.415 104.8C44.415 108.355 43.5731 111.053 41.8982 112.898C40.2321 114.743 37.7907 115.665 34.5782 115.665C31.3967 115.665 28.9597 114.738 27.2582 112.879C25.5655 111.026 24.7236 108.323 24.7236 104.781C24.7236 101.277 25.5611 98.6018 27.2404 96.7571C28.9287 94.9032 31.379 93.9717 34.5959 93.9717C37.8217 93.9717 40.2587 94.8894 41.9159 96.7202C43.582 98.5557 44.415 101.249 44.415 104.8ZM30.4839 104.8C30.4839 108.886 31.8487 110.924 34.5782 110.924C35.9607 110.924 36.9798 110.435 37.6444 109.448C38.318 108.452 38.6547 106.903 38.6547 104.8C38.6547 102.697 38.3091 101.147 37.6267 100.151C36.9532 99.146 35.9429 98.6387 34.5959 98.6387C31.8531 98.6387 30.4839 100.695 30.4839 104.8Z" fill="#115292"/>
<path d="M71.6144 94.3057V106.978C71.6144 109.745 70.8611 111.885 69.3634 113.398C67.8613 114.911 65.699 115.667 62.8764 115.667C60.1115 115.667 57.9846 114.938 56.4958 113.472C55.0158 111.996 54.2803 109.875 54.2803 107.108V94.3057H59.7747V106.665C59.7747 108.154 60.0406 109.238 60.5723 109.911C61.1129 110.589 61.906 110.926 62.9473 110.926C64.0684 110.926 64.8792 110.594 65.3755 109.93C65.8806 109.257 66.1376 108.159 66.1376 106.646V94.3057H71.6144Z" fill="#115292"/>
<path d="M101.453 115.372H94.2752L86.8843 100.522H86.7602C86.9374 102.86 87.0261 104.645 87.0261 105.872V115.372H82.1697V94.3057H89.3302L96.6857 108.952H96.7743C96.6413 106.826 96.5793 105.115 96.5793 103.824V94.3057H101.453V115.372Z" fill="#115292"/>
<path d="M121.073 115.372H115.614V98.9542H110.669V94.3057H126.001V98.9542H121.073V115.372Z" fill="#115292"/>
<path d="M140.693 107.698V115.372H135.216V94.3057H141.863C147.357 94.3057 150.104 96.3809 150.104 100.522C150.104 102.971 148.961 104.857 146.684 106.185L152.568 115.372H146.365L142.076 107.698H140.693ZM140.693 103.418H141.721C143.635 103.418 144.592 102.542 144.592 100.78C144.592 99.3324 143.653 98.6037 141.774 98.6037H140.693V103.418Z" fill="#115292"/>
<path d="M167.961 102.109L171.452 94.3057H177.39L170.726 107.145V115.372H165.214V107.311L158.549 94.3057H164.505L167.961 102.109Z" fill="#115292"/>
<path d="M185.882 115.372V94.3057H191.359V110.778H199.157V115.372H185.882Z" fill="#115292"/>
<path d="M208.709 115.372V94.3057H214.221V115.372H208.709Z" fill="#115292"/>
<path d="M244.188 115.372H237.01L229.619 100.522H229.495C229.672 102.86 229.76 104.645 229.76 105.872V115.372H224.904V94.3057H232.065L239.42 108.952H239.509C239.376 106.826 239.314 105.115 239.314 103.824V94.3057H244.188V115.372Z" fill="#115292"/>
<path d="M266.91 115.372H254.875V94.3057H266.91V98.862H260.352V102.182H266.413V106.757H260.352V110.723H266.91V115.372Z" fill="#115292"/>
<path d="M290 108.971C290 110.276 289.681 111.438 289.043 112.457C288.414 113.467 287.501 114.256 286.296 114.818C285.09 115.381 283.681 115.667 282.077 115.667C280.73 115.667 279.596 115.566 278.674 115.372C277.762 115.178 276.813 114.832 275.821 114.339V109.266C276.871 109.819 277.957 110.257 279.082 110.576C280.203 110.885 281.235 111.037 282.184 111.037C282.999 111.037 283.593 110.889 283.974 110.594C284.35 110.299 284.541 109.925 284.541 109.469C284.541 109.174 284.461 108.925 284.311 108.713C284.156 108.491 283.907 108.27 283.566 108.049C283.234 107.827 282.334 107.38 280.872 106.702C279.561 106.075 278.572 105.475 277.912 104.894C277.248 104.304 276.76 103.631 276.441 102.865C276.122 102.104 275.963 101.205 275.963 100.172C275.963 98.2303 276.641 96.7177 278.001 95.6339C279.357 94.541 281.227 93.9922 283.602 93.9922C285.693 93.9922 287.824 94.4995 290 95.5048L288.334 99.9136C286.442 99.0051 284.807 98.5485 283.424 98.5485C282.715 98.5485 282.193 98.6776 281.865 98.9359C281.546 99.1941 281.386 99.5216 281.386 99.9136C281.386 100.319 281.59 100.688 282.006 101.02C282.419 101.343 283.535 101.938 285.356 102.81C287.093 103.621 288.299 104.498 288.972 105.429C289.654 106.365 290 107.546 290 108.971Z" fill="#115292"/>
</svg>
