<svg width="1018" height="1117" viewBox="0 0 1018 1117" fill="none" xmlns="http://www.w3.org/2000/svg">
<rect width="1018" height="1117" fill="url(#paint0_linear_2_111)"/>
<mask id="mask0_2_111" style="mask-type:alpha" maskUnits="userSpaceOnUse" x="0" y="0" width="1018" height="1117">
<rect width="1018" height="1117" fill="#D9D9D9"/>
</mask>
<g mask="url(#mask0_2_111)">
<g opacity="0.6">
<path d="M426.974 561.988L607.48 555.412L600.93 735.945L570.837 734.879L575.449 608.754L-6.43354 1190.67L-27.6998 1169.4L554.217 587.445L428.049 592.074L426.974 561.988Z" fill="url(#paint1_linear_2_111)"/>
<path d="M303.929 959.25L303.041 934.234L453.098 928.766L447.648 1078.86L422.641 1077.97L426.466 973.121L-57.2764 1456.88L-74.9546 1439.2L408.814 955.4L303.929 959.25Z" fill="url(#paint2_linear_2_111)"/>
<path d="M509.45 1022.73L509.018 1010.59L581.872 1007.93L579.223 1080.79L567.08 1080.36L568.941 1029.46L334.115 1264.31L325.526 1255.72L560.369 1020.86L509.45 1022.73Z" fill="url(#paint3_linear_2_111)"/>
<path d="M197.572 1014.85L197.141 1002.71L269.986 1000.06L267.346 1072.92L255.202 1072.49L257.055 1021.59L22.229 1256.43L13.6479 1247.85L248.491 1012.98L197.572 1014.85Z" fill="url(#paint4_linear_2_111)"/>
<path d="M66.835 627.339L66.4034 615.195L139.249 612.546L136.608 685.404L124.465 684.972L126.318 634.076L-108.508 868.916L-117.089 860.335L117.754 625.469L66.835 627.339Z" fill="url(#paint5_linear_2_111)"/>
<path d="M572.513 794.027L572.293 787.866L609.257 786.52L607.92 823.487L601.759 823.275L602.698 797.446L483.538 916.614L479.18 912.255L598.349 793.079L572.513 794.027Z" fill="url(#paint6_linear_2_111)"/>
<path d="M146.899 903.377L146.679 897.216L183.643 895.871L182.306 932.846L176.145 932.626L177.085 906.796L57.9239 1025.96L53.5657 1021.61L172.735 902.438L146.899 903.377Z" fill="url(#paint7_linear_2_111)"/>
<path d="M673.005 997.892L672.785 991.731L709.749 990.386L708.404 1027.36L702.243 1027.14L703.191 1001.31L584.03 1120.48L579.672 1116.13L698.841 996.953L673.005 997.892Z" fill="url(#paint8_linear_2_111)"/>
<path d="M315.438 567.853L315.218 561.692L352.191 560.346L350.845 597.313L344.685 597.101L345.624 571.272L226.463 690.44L222.114 686.081L341.283 566.905L315.438 567.853Z" fill="url(#paint9_linear_2_111)"/>
<path d="M222.596 863.728L226.421 758.888L-257.313 1242.65L-275 1224.97L208.768 741.167L103.884 745.009L102.995 720.001L253.053 714.534L247.603 864.625L222.596 863.728Z" fill="url(#paint10_linear_2_111)"/>
</g>
<path d="M627.307 436.786L840.952 429L833.201 642.683L797.59 641.422L803.032 492.143L114.327 1180.9L89.1506 1155.72L777.906 466.923L628.568 472.398L627.307 436.786Z" fill="white" fill-opacity="0.9"/>
<path d="M481.659 906.983L480.61 877.379L658.221 870.913L651.773 1048.56L622.171 1047.5L626.698 923.409L54.1495 1496L33.2133 1475.06L605.813 902.438L481.659 906.983Z" fill="white" fill-opacity="0.9"/>
<path d="M724.931 982.126L724.415 967.747L810.639 964.607L807.508 1050.85L793.139 1050.34L795.339 990.089L517.388 1268.06L507.233 1257.89L785.193 979.917L724.931 982.126Z" fill="white" fill-opacity="0.9"/>
<path d="M355.779 972.799L355.271 958.429L441.496 955.289L438.365 1041.53L423.996 1041.01L426.187 980.772L148.244 1258.73L138.089 1248.58L416.049 970.591L355.779 972.799Z" fill="white" fill-opacity="0.9"/>
<path d="M201.042 514.138L200.526 499.768L286.75 496.628L283.619 582.858L269.25 582.35L271.45 522.11L-6.50123 800.069L-16.6562 789.914L261.304 511.929L201.042 514.138Z" fill="white" fill-opacity="0.9"/>
<path d="M799.562 711.428L799.308 704.141L843.059 702.542L841.468 746.304L834.174 746.041L835.291 715.473L694.254 856.526L689.101 851.364L830.146 710.311L799.562 711.428Z" fill="white" fill-opacity="0.9"/>
<path d="M295.805 840.861L295.543 833.574L339.294 831.975L337.712 875.737L330.417 875.475L331.534 844.906L190.489 985.959L185.336 980.797L326.389 839.744L295.805 840.861Z" fill="white" fill-opacity="0.9"/>
<path d="M918.503 952.734L918.249 945.439L962 943.847L960.409 987.601L953.114 987.347L954.231 956.779L813.195 1097.82L808.041 1092.67L949.086 951.608L918.503 952.734Z" fill="white" fill-opacity="0.9"/>
<path d="M495.292 443.726L495.03 436.439L538.79 434.839L537.199 478.602L529.904 478.339L531.021 447.771L389.985 588.824L384.823 583.662L525.876 442.609L495.292 443.726Z" fill="white" fill-opacity="0.9"/>
<path d="M385.398 793.934L389.925 669.84L-182.632 1242.43L-203.559 1221.49L369.04 648.869L244.886 653.414L243.837 623.81L421.448 617.344L415 794.983L385.398 793.934Z" fill="white" fill-opacity="0.9"/>
</g>
<defs>
<linearGradient id="paint0_linear_2_111" x1="1018" y1="7.87487e-05" x2="-243.149" y2="485.871" gradientUnits="userSpaceOnUse">
<stop stop-color="#70A9A1"/>
<stop offset="1" stop-color="#CFE0C3"/>
</linearGradient>
<linearGradient id="paint1_linear_2_111" x1="-27.7003" y1="873.039" x2="607.481" y2="873.039" gradientUnits="userSpaceOnUse">
<stop stop-color="#CFE0C3"/>
<stop offset="0.3057" stop-color="#A6C8B4"/>
<stop offset="0.5868" stop-color="#89B7AA"/>
<stop offset="0.8277" stop-color="#76ADA3"/>
<stop offset="1" stop-color="#70A9A1"/>
</linearGradient>
<linearGradient id="paint2_linear_2_111" x1="-74.9548" y1="1192.83" x2="453.098" y2="1192.83" gradientUnits="userSpaceOnUse">
<stop stop-color="#CFE0C3"/>
<stop offset="0.3057" stop-color="#A6C8B4"/>
<stop offset="0.5868" stop-color="#89B7AA"/>
<stop offset="0.8277" stop-color="#76ADA3"/>
<stop offset="1" stop-color="#70A9A1"/>
</linearGradient>
<linearGradient id="paint3_linear_2_111" x1="325.528" y1="1136.12" x2="581.869" y2="1136.12" gradientUnits="userSpaceOnUse">
<stop stop-color="#CFE0C3"/>
<stop offset="0.3057" stop-color="#A6C8B4"/>
<stop offset="0.5868" stop-color="#89B7AA"/>
<stop offset="0.8277" stop-color="#76ADA3"/>
<stop offset="1" stop-color="#70A9A1"/>
</linearGradient>
<linearGradient id="paint4_linear_2_111" x1="13.6458" y1="1128.24" x2="269.988" y2="1128.24" gradientUnits="userSpaceOnUse">
<stop stop-color="#CFE0C3"/>
<stop offset="0.3057" stop-color="#A6C8B4"/>
<stop offset="0.5868" stop-color="#89B7AA"/>
<stop offset="0.8277" stop-color="#76ADA3"/>
<stop offset="1" stop-color="#70A9A1"/>
</linearGradient>
<linearGradient id="paint5_linear_2_111" x1="-117.092" y1="740.73" x2="139.25" y2="740.73" gradientUnits="userSpaceOnUse">
<stop stop-color="#CFE0C3"/>
<stop offset="0.3057" stop-color="#A6C8B4"/>
<stop offset="0.5868" stop-color="#89B7AA"/>
<stop offset="0.8277" stop-color="#76ADA3"/>
<stop offset="1" stop-color="#70A9A1"/>
</linearGradient>
<linearGradient id="paint6_linear_2_111" x1="479.181" y1="851.565" x2="609.258" y2="851.565" gradientUnits="userSpaceOnUse">
<stop stop-color="#CFE0C3"/>
<stop offset="0.3057" stop-color="#A6C8B4"/>
<stop offset="0.5868" stop-color="#89B7AA"/>
<stop offset="0.8277" stop-color="#76ADA3"/>
<stop offset="1" stop-color="#70A9A1"/>
</linearGradient>
<linearGradient id="paint7_linear_2_111" x1="53.5681" y1="960.92" x2="183.645" y2="960.92" gradientUnits="userSpaceOnUse">
<stop stop-color="#CFE0C3"/>
<stop offset="0.3057" stop-color="#A6C8B4"/>
<stop offset="0.5868" stop-color="#89B7AA"/>
<stop offset="0.8277" stop-color="#76ADA3"/>
<stop offset="1" stop-color="#70A9A1"/>
</linearGradient>
<linearGradient id="paint8_linear_2_111" x1="579.671" y1="1055.44" x2="709.749" y2="1055.44" gradientUnits="userSpaceOnUse">
<stop stop-color="#CFE0C3"/>
<stop offset="0.3057" stop-color="#A6C8B4"/>
<stop offset="0.5868" stop-color="#89B7AA"/>
<stop offset="0.8277" stop-color="#76ADA3"/>
<stop offset="1" stop-color="#70A9A1"/>
</linearGradient>
<linearGradient id="paint9_linear_2_111" x1="222.11" y1="625.391" x2="352.187" y2="625.391" gradientUnits="userSpaceOnUse">
<stop stop-color="#CFE0C3"/>
<stop offset="0.3057" stop-color="#A6C8B4"/>
<stop offset="0.5868" stop-color="#89B7AA"/>
<stop offset="0.8277" stop-color="#76ADA3"/>
<stop offset="1" stop-color="#70A9A1"/>
</linearGradient>
<linearGradient id="paint10_linear_2_111" x1="-275" y1="978.593" x2="253.053" y2="978.593" gradientUnits="userSpaceOnUse">
<stop stop-color="#CFE0C3"/>
<stop offset="0.3057" stop-color="#A6C8B4"/>
<stop offset="0.5868" stop-color="#89B7AA"/>
<stop offset="0.8277" stop-color="#76ADA3"/>
<stop offset="1" stop-color="#70A9A1"/>
</linearGradient>
</defs>
</svg>
