<svg width="31" height="31" viewBox="0 0 31 31" fill="none" xmlns="http://www.w3.org/2000/svg">
<path d="M15.5 0.0493164C19.4782 0.0493164 23.2936 1.62967 26.1066 4.44271C28.9196 7.25576 30.5 11.0711 30.5 15.0493C30.5 19.0276 28.9196 22.8429 26.1066 25.6559C23.2936 28.469 19.4782 30.0493 15.5 30.0493C11.5218 30.0493 7.70644 28.469 4.8934 25.6559C2.08035 22.8429 0.5 19.0276 0.5 15.0493C0.5 11.0711 2.08035 7.25576 4.8934 4.44271C7.70644 1.62967 11.5218 0.0493164 15.5 0.0493164V0.0493164ZM8.9375 14.1118C8.68886 14.1118 8.4504 14.2106 8.27459 14.3864C8.09877 14.5622 8 14.8007 8 15.0493C8 15.298 8.09877 15.5364 8.27459 15.7122C8.4504 15.888 8.68886 15.9868 8.9375 15.9868H19.7994L15.7738 20.0106C15.6866 20.0977 15.6174 20.2012 15.5703 20.3151C15.5231 20.429 15.4988 20.551 15.4988 20.6743C15.4988 20.7976 15.5231 20.9196 15.5703 21.0335C15.6174 21.1474 15.6866 21.2509 15.7738 21.3381C15.8609 21.4252 15.9644 21.4944 16.0783 21.5415C16.1922 21.5887 16.3142 21.613 16.4375 21.613C16.5608 21.613 16.6828 21.5887 16.7967 21.5415C16.9106 21.4944 17.0141 21.4252 17.1012 21.3381L22.7262 15.7131C22.8136 15.626 22.8828 15.5225 22.9301 15.4086C22.9773 15.2947 23.0017 15.1726 23.0017 15.0493C23.0017 14.926 22.9773 14.8039 22.9301 14.69C22.8828 14.5761 22.8136 14.4727 22.7262 14.3856L17.1012 8.76057C17.0141 8.6734 16.9106 8.60426 16.7967 8.55709C16.6828 8.50991 16.5608 8.48563 16.4375 8.48563C16.3142 8.48563 16.1922 8.50991 16.0783 8.55709C15.9644 8.60426 15.8609 8.6734 15.7738 8.76057C15.6866 8.84773 15.6174 8.95121 15.5703 9.0651C15.5231 9.17898 15.4988 9.30105 15.4988 9.42432C15.4988 9.54759 15.5231 9.66965 15.5703 9.78354C15.6174 9.89742 15.6866 10.0009 15.7738 10.0881L19.7994 14.1118H8.9375Z" fill="white"/>
</svg>
