<svg width="350" height="214" viewBox="0 0 350 214" fill="none" xmlns="http://www.w3.org/2000/svg">
<path d="M160.609 71.514L170.952 42.6709L157.084 52.3886V138.271H170.952V65.6889L160.609 71.514Z" fill="#70A9A1"/>
<path d="M188.372 71.514L178.028 42.6709L191.896 52.3886V138.271H178.028V65.6889L188.372 71.514Z" fill="#CFE0C3"/>
<path d="M114.198 104.897L124.55 76.0537L110.682 85.7714V138.271H124.55V99.0717L114.198 104.897Z" fill="#70A9A1"/>
<path d="M141.97 104.897L131.618 76.0537L145.486 85.7714V138.271H131.618V99.0717L141.97 104.897Z" fill="#CFE0C3"/>
<path d="M205.88 28.8431L216.232 0L202.364 9.71768V138.272H216.232V23.018L205.88 28.8431Z" fill="#70A9A1"/>
<path d="M233.652 28.8431L223.309 0L237.168 9.71768V138.272H223.309V23.018L233.652 28.8431Z" fill="#CFE0C3"/>
<path d="M237.168 138.27H289.97L230.243 129.318L237.168 138.27Z" fill="#CFE0C3"/>
<path d="M110.682 138.27H57.8804L117.616 129.318L110.682 138.27Z" fill="#70A9A1"/>
<path d="M11.0019 198.034V213.203H0V171.561H13.3518C24.3893 171.561 29.908 175.663 29.908 183.849C29.908 188.69 27.6115 192.418 23.0363 195.044L34.857 213.203H22.3954L13.779 198.034H11.0019ZM11.0019 189.574H13.0669C16.9123 189.574 18.8349 187.842 18.8349 184.36C18.8349 181.497 16.9479 180.057 13.1738 180.057H11.0019V189.574Z" fill="#70A9A1"/>
<path d="M71.7875 171.561V196.612C71.7875 202.081 70.2743 206.311 67.2657 209.301C64.2482 212.291 59.9044 213.786 54.2344 213.786C48.68 213.786 44.4075 212.346 41.4167 209.447C38.4437 206.53 36.9661 202.337 36.9661 196.867V171.561H48.0035V195.992C48.0035 198.936 48.5376 201.079 49.6057 202.41C50.6917 203.75 52.285 204.415 54.3768 204.415C56.6288 204.415 58.2577 203.759 59.2546 202.446C60.2694 201.115 60.7856 198.946 60.7856 195.956V171.561H71.7875Z" fill="#70A9A1"/>
<path d="M117.659 213.203H103.239L88.392 183.849H88.1428C88.4989 188.471 88.6769 191.999 88.6769 194.424V213.203H78.9212V171.561H93.3055L108.081 200.514H108.259C107.992 196.311 107.868 192.929 107.868 190.377V171.561H117.659V213.203Z" fill="#70A9A1"/>
<path d="M168.993 213.203H155.997L152.116 195.044C151.92 194.296 151.627 192.783 151.226 190.522C150.817 188.262 150.532 186.384 150.372 184.87C150.202 186.092 149.953 187.623 149.624 189.465C149.286 191.288 148.956 192.984 148.627 194.533C148.315 196.065 146.971 202.291 144.604 213.203H131.608L121.532 171.561H132.142L136.557 192.418C137.554 197.04 138.239 200.723 138.622 203.467C138.853 201.525 139.281 198.9 139.904 195.591C140.518 192.264 141.096 189.501 141.648 187.314L145.244 171.561H155.427L158.881 187.314C159.469 189.848 160.074 192.765 160.697 196.065C161.311 199.374 161.729 201.844 161.943 203.467C162.174 201.352 162.833 197.697 163.901 192.491L168.423 171.561H178.998L168.993 213.203Z" fill="#70A9A1"/>
<path d="M207.832 213.205L205.838 205.402H192.629L190.564 213.205H178.494L191.774 171.381H206.408L219.866 213.205H207.832ZM203.559 196.176L201.815 189.321C201.405 187.817 200.907 185.857 200.319 183.45C199.723 181.026 199.331 179.284 199.144 178.236C198.975 179.212 198.646 180.816 198.148 183.049C197.667 185.265 196.59 189.64 194.907 196.176H203.559Z" fill="#70A9A1"/>
<path d="M237.389 186.985L244.403 171.561H256.331L242.943 196.94V213.203H231.87V197.268L218.483 171.561H230.446L237.389 186.985Z" fill="#70A9A1"/>
<path d="M281.144 213.203H270V191.142C270 188.471 270.044 186.028 270.142 183.813C269.448 184.67 268.593 185.554 267.579 186.475L262.986 190.377L257.289 183.193L271.246 171.561H281.144V213.203Z" fill="#CFE0C3"/>
<path d="M318.171 213.2H288.655V205.798L298.589 195.515C301.41 192.479 303.262 190.401 304.143 189.279C305.015 188.167 305.62 187.219 305.959 186.435C306.288 185.633 306.457 184.794 306.457 183.919C306.457 182.825 306.11 181.977 305.425 181.367C304.757 180.738 303.796 180.419 302.541 180.419C301.259 180.419 299.959 180.802 298.66 181.549C297.351 182.278 295.883 183.39 294.245 184.867L288.192 177.611C290.275 175.697 292.037 174.32 293.461 173.49C294.903 172.67 296.461 172.032 298.126 171.594C299.808 171.157 301.695 170.938 303.787 170.938C306.422 170.938 308.771 171.43 310.837 172.397C312.919 173.345 314.539 174.694 315.679 176.444C316.818 178.194 317.388 180.163 317.388 182.351C317.388 183.983 317.183 185.487 316.783 186.873C316.373 188.258 315.759 189.626 314.931 190.957C314.094 192.297 312.982 193.71 311.584 195.187C310.205 196.673 307.276 199.48 302.79 203.61V203.902H318.171V213.2Z" fill="#CFE0C3"/>
<path d="M348.789 180.565C348.789 183.172 348.015 185.396 346.475 187.237C344.953 189.088 342.737 190.428 339.817 191.248V191.431C346.6 192.306 350 195.588 350 201.276C350 205.169 348.505 208.232 345.514 210.465C342.523 212.68 338.357 213.783 333.017 213.783C330.827 213.783 328.797 213.61 326.928 213.273C325.077 212.963 323.065 212.379 320.911 211.523V202.188C322.691 203.118 324.489 203.81 326.323 204.266C328.174 204.704 329.883 204.923 331.45 204.923C333.844 204.923 335.589 204.585 336.684 203.902C337.796 203.2 338.357 202.106 338.357 200.62C338.357 199.48 338.072 198.605 337.503 197.994C336.933 197.365 336.007 196.891 334.726 196.572C333.444 196.262 331.77 196.098 329.705 196.098H327.213V187.639H329.776C335.349 187.639 338.144 186.18 338.144 183.263C338.144 182.169 337.725 181.358 336.897 180.82C336.087 180.291 334.984 180.018 333.586 180.018C330.996 180.018 328.299 180.911 325.504 182.679L320.946 175.168C323.101 173.664 325.308 172.579 327.569 171.923C329.821 171.266 332.393 170.938 335.295 170.938C339.514 170.938 342.817 171.804 345.193 173.527C347.588 175.232 348.789 177.574 348.789 180.565Z" fill="#CFE0C3"/>
</svg>
