<svg width="200" height="35" viewBox="0 0 200 35" fill="none" xmlns="http://www.w3.org/2000/svg">
<path d="M10.6332 34.8161C8.64293 34.8699 6.6631 34.5239 4.82269 33.8007C3.35839 33.2173 2.10449 32.2402 1.21436 30.9891C0.387707 29.749 -0.0341369 28.3035 0.0021601 26.8352C-0.019706 25.4218 0.279407 24.0206 0.879005 22.7274C1.49364 21.461 2.37363 20.3276 3.46503 19.3966C4.72092 18.3308 6.13398 17.4457 7.65925 16.7696C7.04651 16.2045 6.49675 15.5807 6.01874 14.908C5.53311 14.2216 5.15219 13.4731 4.88735 12.6849C4.6043 11.8134 4.46792 10.9047 4.48328 9.99253C4.45954 8.22801 4.92504 6.48873 5.83286 4.95012C6.75342 3.41668 8.11454 2.16509 9.75637 1.34235C11.4588 0.450028 13.5492 0.00386648 16.0275 0.00386648C17.7447 -0.0382745 19.4519 0.26446 21.0379 0.892345C22.3426 1.41871 23.4547 2.30057 24.2341 3.42701C24.9902 4.59395 25.3734 5.94498 25.3372 7.31555C25.3423 8.55615 25.0782 9.78439 24.5614 10.9233C24.0215 12.0936 23.2443 13.151 22.2744 14.0349C21.2107 15.0086 19.981 15.8033 18.6378 16.385C19.5113 17.053 20.2873 17.8291 20.945 18.6927C21.5339 19.4788 21.9855 20.3503 22.2825 21.2735C22.5844 22.2341 22.7329 23.2325 22.7229 24.2351C22.7642 26.1205 22.2482 27.9791 21.2337 29.5989C20.2192 31.2187 18.7471 32.5347 16.9851 33.3969C15.0256 34.3676 12.8418 34.8556 10.6332 34.8161ZM10.8756 28.4314C11.5368 28.446 12.1863 28.2645 12.7343 27.9121C13.2678 27.5552 13.6952 27.0729 13.9748 26.5121C14.2786 25.9045 14.432 25.2387 14.4233 24.5659C14.4245 24.0501 14.3343 23.5378 14.1567 23.0505C13.9713 22.5525 13.7143 22.0813 13.393 21.6505C13.0452 21.1874 12.638 20.7674 12.1808 20.4004C11.4808 20.8049 10.8396 21.295 10.2736 21.8582C9.70772 22.4143 9.24338 23.0565 8.89974 23.7582C8.55877 24.4529 8.38352 25.2107 8.38657 25.9775C8.36391 26.3134 8.41874 26.6499 8.54717 26.9635C8.6756 27.2772 8.87455 27.5602 9.13006 27.7929C9.6051 28.2098 10.2295 28.4382 10.8756 28.4314ZM14.2294 12.7426C14.8366 12.4243 15.383 12.0108 15.8457 11.5195C16.2516 11.0789 16.573 10.5737 16.7952 10.0271C17.0017 9.5125 17.1085 8.96648 17.1104 8.41558C17.1361 8.1407 17.1008 7.86375 17.0068 7.60269C16.9129 7.34163 16.7623 7.10227 16.5649 6.90016C16.2033 6.58648 15.7287 6.41711 15.2396 6.42707C14.7652 6.42331 14.3047 6.57853 13.9385 6.86555C13.537 7.1866 13.2236 7.59582 13.0253 8.05788C12.7902 8.60431 12.6747 9.19063 12.6859 9.78099C12.6914 10.3589 12.8454 10.9267 13.1344 11.4349C13.3967 11.9404 13.7702 12.3864 14.2294 12.7426Z" fill="white"/>
<path d="M25.7051 34.3547L33.2126 0.527069H42.1021C44.7959 0.527069 46.9752 0.920664 48.64 1.70786C50.1783 2.39 51.4449 3.52556 52.2523 4.94639C53.0245 6.40098 53.4115 8.01317 53.3797 9.64264C53.3904 11.4049 53.0787 13.1554 52.4584 14.8158C51.8582 16.4406 50.9033 17.926 49.6567 19.1743C48.4101 20.4225 46.8999 21.4054 45.2256 22.0583C43.2764 22.8054 41.1887 23.1704 39.0878 23.1314H37.0675L34.6107 34.3547H25.7051ZM38.6595 16.0082H39.7303C40.6023 16.0222 41.4547 15.7612 42.1547 15.2658C42.869 14.7421 43.4195 14.0425 43.7467 13.2427C44.134 12.3037 44.3235 11.3013 44.3043 10.2927C44.3523 9.57952 44.114 8.87566 43.6376 8.32339C43.1931 7.86184 42.4739 7.63106 41.488 7.63106H40.5546L38.6595 16.0082Z" fill="#FFCD00"/>
<path d="M53.218 34.3547L60.7297 0.527069H69.6192L63.6874 27.2045H73.6518L72.1123 34.3547H53.218Z" fill="#FFCD00"/>
<path d="M73.0786 34.3546L89.803 0.457764H101.206L102.98 34.3546H93.9083L93.8841 27.8776H85.4471L82.6187 34.3546H73.0786ZM88.514 20.8428H93.9811V11.5888C93.9811 10.8195 94.0093 10.0849 94.0174 9.34257C94.0255 8.60024 94.0619 7.84638 94.1265 7.07714H93.9568C93.7629 7.84638 93.5527 8.58102 93.3022 9.27334C93.0517 9.96566 92.781 10.6849 92.4739 11.4234L88.514 20.8428Z" fill="#FFCD00"/>
<path d="M112.042 34.3547L114.911 21.4429L110.365 0.527069H119.602L121.182 12.2119L127.841 0.527069H137.611L123.873 21.2967L120.955 34.347L112.042 34.3547Z" fill="#FFCD00"/>
<path d="M142.158 34.8167C140.517 34.8305 138.88 34.6523 137.285 34.2859C135.871 33.9605 134.532 33.388 133.337 32.5974L134.234 24.5203C135.441 25.3163 136.738 25.9807 138.101 26.5011C139.435 27.0579 140.871 27.3597 142.328 27.3896C142.791 27.3926 143.253 27.3383 143.702 27.2281C144.111 27.1292 144.498 26.9612 144.845 26.7319C145.19 26.5 145.468 26.1892 145.653 25.828C145.859 25.3962 145.959 24.9252 145.944 24.4511C145.946 23.9354 145.816 23.4269 145.564 22.9703C145.263 22.4465 144.879 21.9703 144.425 21.5587C143.912 21.0818 143.277 20.5433 142.514 19.9394C141.529 19.1729 140.633 18.3076 139.843 17.3586C139.117 16.482 138.558 15.4915 138.19 14.4316C137.362 11.8586 137.452 9.09715 138.445 6.57762C138.98 5.28569 139.795 4.11545 140.837 3.14294C141.945 2.11731 143.272 1.33031 144.728 0.835197C146.415 0.274626 148.194 0.00121458 149.981 0.0274851C151.631 0.0315945 153.274 0.245018 154.866 0.662117C156.457 1.06928 157.973 1.70479 159.363 2.54677L155.864 9.53538C154.861 8.91321 153.799 8.38264 152.692 7.95073C151.774 7.5722 150.787 7.36461 149.787 7.33918C149.323 7.33052 148.862 7.40086 148.425 7.54688C148.067 7.66761 147.74 7.86046 147.467 8.11227C147.21 8.35734 147.014 8.65444 146.894 8.98152C146.761 9.33835 146.695 9.7146 146.7 10.0931C146.702 10.5335 146.797 10.969 146.978 11.3739C147.236 11.8975 147.585 12.375 148.013 12.7855C148.688 13.4483 149.419 14.0567 150.199 14.6047C151.278 15.3399 152.24 16.2195 153.056 17.2163C153.76 18.0938 154.291 19.0855 154.623 20.1433C154.961 21.2765 155.126 22.4501 155.112 23.628C155.123 25.122 154.842 26.6048 154.284 28.0012C153.751 29.339 152.925 30.5533 151.86 31.5628C150.709 32.6256 149.331 33.4391 147.819 33.9474C146.001 34.5544 144.084 34.8487 142.158 34.8167Z" fill="#FFCD00"/>
<path d="M155.629 32.7548C155.606 32.4954 155.645 32.2343 155.743 31.9912C155.841 31.7481 155.995 31.5292 156.194 31.3509C156.616 31.0392 157.14 30.881 157.673 30.9048C158.19 30.883 158.697 31.0417 159.1 31.3509C159.295 31.5315 159.446 31.7511 159.541 31.9939C159.636 32.2368 159.673 32.4967 159.649 32.7548C159.67 33.0099 159.63 33.2662 159.534 33.5051C159.438 33.7439 159.286 33.9593 159.092 34.1356C158.695 34.4515 158.19 34.616 157.673 34.5972C157.142 34.6173 156.621 34.4533 156.207 34.1356C156.006 33.9623 155.85 33.7479 155.75 33.5087C155.65 33.2694 155.609 33.0116 155.629 32.7548Z" fill="#43BABF"/>
<path d="M166.499 34.5469C165.53 34.5751 164.568 34.3715 163.703 33.9546C162.918 33.5445 162.298 32.8978 161.941 32.1161C161.498 31.1144 161.29 30.0329 161.331 28.9468C161.3 27.889 161.517 26.838 161.966 25.8698C162.353 25.0552 162.993 24.3732 163.8 23.9159C164.677 23.4428 165.673 23.2074 166.681 23.2351C167.309 23.2299 167.935 23.301 168.544 23.4467C169.109 23.583 169.652 23.7899 170.16 24.062L169.13 26.7236C168.755 26.5315 168.363 26.3719 167.958 26.2467C167.587 26.1347 167.2 26.0776 166.81 26.0775C166.472 26.0727 166.143 26.1879 165.889 26.4006C165.595 26.6583 165.381 26.9884 165.271 27.3544C165.109 27.8654 165.034 28.3978 165.049 28.9314C165.035 29.4523 165.11 29.9719 165.271 30.4699C165.378 30.8236 165.597 31.1376 165.897 31.3699C166.174 31.5674 166.513 31.6704 166.859 31.6622C167.374 31.6609 167.885 31.5751 168.37 31.4084C168.884 31.2347 169.371 30.9953 169.817 30.6968V33.5584C169.367 33.8705 168.868 34.1121 168.338 34.2738C167.744 34.456 167.123 34.5481 166.499 34.5469Z" fill="white"/>
<path d="M181.821 28.8702C181.827 29.6268 181.721 30.3805 181.505 31.1087C181.315 31.7664 180.988 32.381 180.544 32.9164C180.111 33.4323 179.558 33.8445 178.927 34.1203C178.2 34.4191 177.413 34.5647 176.62 34.5472C175.865 34.5603 175.116 34.4158 174.426 34.1242C173.801 33.8465 173.248 33.4391 172.81 32.9318C172.352 32.3981 172.007 31.7857 171.792 31.128C171.257 29.4116 171.341 27.5744 172.03 25.9086C172.392 25.0993 173.003 24.4138 173.784 23.9432C174.657 23.4493 175.662 23.205 176.677 23.2393C177.618 23.2219 178.547 23.4479 179.364 23.8932C180.157 24.3499 180.79 25.0187 181.186 25.8163C181.643 26.7737 181.861 27.8192 181.821 28.8702ZM175.125 28.8894C175.115 29.428 175.168 29.9659 175.283 30.4933C175.353 30.857 175.52 31.1974 175.768 31.4818C175.879 31.5935 176.014 31.6814 176.164 31.7398C176.314 31.7981 176.475 31.8256 176.636 31.8203C176.797 31.8275 176.958 31.8014 177.108 31.7436C177.257 31.6858 177.391 31.5978 177.501 31.4856C177.744 31.1993 177.903 30.8569 177.962 30.4933C178.064 29.9579 178.112 29.4143 178.103 28.8702C178.113 28.3286 178.065 27.7875 177.962 27.2548C177.901 26.899 177.741 26.5654 177.497 26.2894C177.383 26.1805 177.247 26.0956 177.097 26.0399C176.946 25.9843 176.785 25.9592 176.624 25.9663C176.379 25.9594 176.137 26.0252 175.932 26.1547C175.727 26.2842 175.569 26.471 175.481 26.6894C175.204 27.3915 175.083 28.1406 175.125 28.8894Z" fill="white"/>
<path d="M196.436 23.2396C197.603 23.2396 198.489 23.5627 199.095 24.2088C199.697 24.855 200 25.8666 200 27.2512V34.3552H196.335V28.3474C196.373 27.7725 196.275 27.1967 196.048 26.6627C195.976 26.5035 195.856 26.3686 195.702 26.2753C195.549 26.182 195.37 26.1348 195.188 26.1396C194.934 26.1282 194.683 26.1977 194.475 26.337C194.267 26.4763 194.114 26.6775 194.04 26.9089C193.798 27.6489 193.693 28.4232 193.729 29.1974V34.3552H190.064V28.3474C190.073 27.929 190.033 27.5109 189.943 27.1012C189.892 26.8334 189.766 26.5836 189.579 26.3781C189.5 26.2988 189.404 26.2365 189.297 26.1953C189.19 26.1542 189.076 26.1352 188.961 26.1396C188.79 26.133 188.619 26.1643 188.463 26.231C188.306 26.2978 188.168 26.3982 188.06 26.5243C187.808 26.8503 187.65 27.2336 187.603 27.6358C187.505 28.2634 187.46 28.8976 187.47 29.532V34.3706H183.833V23.4473H186.638L187.114 24.7973H187.264C187.437 24.4793 187.678 24.199 187.971 23.9742C188.28 23.7346 188.636 23.5543 189.017 23.4434C189.457 23.3122 189.915 23.2485 190.375 23.255C191.018 23.222 191.659 23.3549 192.23 23.6396C192.687 23.8967 193.064 24.2659 193.321 24.7088H193.495C193.794 24.2535 194.212 23.8788 194.707 23.6204C195.24 23.3569 195.835 23.226 196.436 23.2396Z" fill="white"/>
</svg>
