<svg width="32" height="32" viewBox="0 0 32 32" fill="none" xmlns="http://www.w3.org/2000/svg">
<path d="M18 8.875C15.5156 8.875 13.5 10.8906 13.5 13.375C13.5 15.8594 15.5156 17.875 18 17.875C20.4844 17.875 22.5 15.8594 22.5 13.375C22.5 10.8906 20.4844 8.875 18 8.875ZM18 15.625C16.7344 15.625 15.75 14.6406 15.75 13.375C15.75 12.1562 16.7344 11.125 18 11.125C19.2188 11.125 20.25 12.1562 20.25 13.375C20.25 14.6406 19.2188 15.625 18 15.625ZM18 4.375C11.5781 4.375 6.375 9.57812 6.375 16C6.375 22.4219 11.5781 27.625 18 27.625C24.4219 27.625 29.625 22.4219 29.625 16C29.625 9.57812 24.4219 4.375 18 4.375ZM18 25.375C15.6562 25.375 13.5 24.5312 11.8594 23.125C12.5625 22.0469 13.7812 21.2969 15.1406 21.2969C16.125 21.5781 17.0625 21.7188 18 21.7188C18.8906 21.7188 19.8281 21.5781 20.8125 21.2969C22.1719 21.3438 23.3906 22.0469 24.0938 23.125C22.4531 24.5312 20.2969 25.375 18 25.375ZM25.5938 21.4375C24.4688 19.9844 22.6875 19 20.6719 19C20.2031 19 19.4531 19.4688 18 19.4688C16.5 19.4688 15.75 19 15.2812 19C13.2656 19 11.4844 19.9844 10.3594 21.4375C9.23438 19.9375 8.625 18.0625 8.625 16C8.625 10.8438 12.7969 6.625 18 6.625C23.1562 6.625 27.375 10.8438 27.375 16C27.375 18.0625 26.7188 19.9375 25.5938 21.4375Z" fill="#115292"/>
<circle cx="16.0001" cy="16" r="15.2" fill="white" stroke="white" stroke-width="1.6"/>
<circle cx="16.0001" cy="11.2" r="6.4" fill="#BDBDBD"/>
<path fill-rule="evenodd" clip-rule="evenodd" d="M6.41846 26.7498C6.7283 22.9831 10.8997 20 16 20C21.1003 20 25.2717 22.9831 25.5815 26.7498C23.0361 29.0202 19.6792 30.4 16 30.4C12.3208 30.4 8.96387 29.0202 6.41846 26.7498Z" fill="#BDBDBD"/>
</svg>
