<svg width="64" height="60" viewBox="0 0 64 60" fill="none" xmlns="http://www.w3.org/2000/svg">
<path d="M22.25 24.1875H41.75C42.125 24.1875 42.5 23.8594 42.5 23.4375V21.5625C42.5 21.1875 42.125 20.8125 41.75 20.8125H22.25C21.8281 20.8125 21.5 21.1875 21.5 21.5625V23.4375C21.5 23.8594 21.8281 24.1875 22.25 24.1875ZM22.25 31.6875H41.75C42.125 31.6875 42.5 31.3594 42.5 30.9375V29.0625C42.5 28.6875 42.125 28.3125 41.75 28.3125H22.25C21.8281 28.3125 21.5 28.6875 21.5 29.0625V30.9375C21.5 31.3594 21.8281 31.6875 22.25 31.6875ZM22.25 39.1875H41.75C42.125 39.1875 42.5 38.8594 42.5 38.4375V36.5625C42.5 36.1875 42.125 35.8125 41.75 35.8125H22.25C21.8281 35.8125 21.5 36.1875 21.5 36.5625V38.4375C21.5 38.8594 21.8281 39.1875 22.25 39.1875Z" fill="white"/>
</svg>
