<svg width="200" height="200" viewBox="0 0 200 200" fill="none" xmlns="http://www.w3.org/2000/svg">
<path d="M94.9999 98.14L32.9199 53C34.1932 51.7189 35.7898 50.8066 37.5399 50.36C38.3576 50.1326 39.2013 50.0116 40.0499 50H160C162.612 49.9998 165.122 51.0145 167 52.83L104.62 98.14C103.213 99.1348 101.533 99.6691 99.8099 99.6691C98.087 99.6691 96.4066 99.1348 94.9999 98.14V98.14Z" fill="white"/>
<path d="M170 60.48V140C169.987 142.648 168.929 145.184 167.057 147.057C165.184 148.929 162.648 149.987 160 150H40.05C37.3932 150 34.8445 148.948 32.9612 147.074C31.0779 145.2 30.0132 142.657 30 140V60.73L89.28 103.83C92.3696 106.001 96.0539 107.166 99.83 107.166C103.606 107.166 107.29 106.001 110.38 103.83L170 60.48Z" fill="white"/>
</svg>
