<svg width="288" height="288" viewBox="0 0 101 120" fill="none" xmlns="http://www.w3.org/2000/svg">
<path d="M101 94.7395C100.394 95.8282 99.85 96.9499 99.37 98.0995C98.72 99.9495 97.55 100.35 95.77 100.35C72.8766 100.29 49.9833 100.29 27.09 100.35C20.43 100.35 13.77 100.18 7.08996 100.43C4.24996 100.54 2.47996 99.7695 1.63996 96.8795C1.4737 96.3859 1.24519 95.9154 0.959961 95.4795C4.65996 91.7395 8.49996 88.4795 11.61 84.5695C15.6771 79.4469 17.9125 73.1102 17.96 66.5695C18.11 59.3895 18.26 52.2195 18.35 45.0395C18.53 29.5495 29.06 15.7495 43.43 12.5495C45.69 12.0395 46.43 11.1295 46.22 8.80953C46.1135 7.36035 46.1369 5.90454 46.29 4.45953C46.29 3.34827 46.7314 2.28253 47.5172 1.49675C48.303 0.710976 49.3687 0.269531 50.48 0.269531C51.5912 0.269531 52.657 0.710976 53.4427 1.49675C54.2285 2.28253 54.67 3.34827 54.67 4.45953C54.77 6.79953 54.67 9.14953 54.67 11.7295C63.52 13.2395 70.54 17.1595 76 23.9995C80.6244 29.726 83.1916 36.8396 83.29 44.1995C83.44 51.5595 83.44 58.9095 83.73 66.2695C84.18 77.9695 89.73 86.6295 98.73 93.1195C99.36 93.6395 100.09 94.1195 101 94.7395Z" fill="white"/>
<path d="M38.9999 107.84H62.8999C63.3699 113.99 57.6299 119.62 50.9799 119.63C44.3299 119.64 38.6199 114.08 38.9999 107.84Z" fill="white"/>
</svg>
