<svg width="1018" height="1495" viewBox="0 0 1018 1495" fill="none" xmlns="http://www.w3.org/2000/svg">
<rect width="1018" height="1495" fill="url(#paint0_linear_2_111)"/>
<mask id="mask0_2_111" style="mask-type:alpha" maskUnits="userSpaceOnUse" x="0" y="378" width="1018" height="1117">
<rect y="378" width="1018" height="1117" fill="#D9D9D9"/>
</mask>
<g mask="url(#mask0_2_111)">
<g opacity="0.6">
<path d="M426.974 939.988L607.48 933.412L600.93 1113.95L570.837 1112.88L575.449 986.754L-6.43354 1568.67L-27.6998 1547.4L554.217 965.445L428.049 970.074L426.974 939.988Z" fill="url(#paint1_linear_2_111)"/>
<path d="M303.929 1337.25L303.041 1312.23L453.098 1306.77L447.648 1456.86L422.641 1455.97L426.466 1351.12L-57.2764 1834.88L-74.9546 1817.2L408.814 1333.4L303.929 1337.25Z" fill="url(#paint2_linear_2_111)"/>
<path d="M509.45 1400.73L509.018 1388.59L581.872 1385.93L579.223 1458.79L567.08 1458.36L568.941 1407.46L334.115 1642.31L325.526 1633.72L560.369 1398.86L509.45 1400.73Z" fill="url(#paint3_linear_2_111)"/>
<path d="M197.572 1392.85L197.141 1380.71L269.986 1378.06L267.346 1450.92L255.202 1450.49L257.055 1399.59L22.229 1634.43L13.6479 1625.85L248.491 1390.98L197.572 1392.85Z" fill="url(#paint4_linear_2_111)"/>
<path d="M66.835 1005.34L66.4034 993.195L139.249 990.546L136.608 1063.4L124.465 1062.97L126.318 1012.08L-108.508 1246.92L-117.089 1238.33L117.754 1003.47L66.835 1005.34Z" fill="url(#paint5_linear_2_111)"/>
<path d="M572.513 1172.03L572.293 1165.87L609.257 1164.52L607.92 1201.49L601.759 1201.27L602.698 1175.45L483.538 1294.61L479.18 1290.26L598.349 1171.08L572.513 1172.03Z" fill="url(#paint6_linear_2_111)"/>
<path d="M146.899 1281.38L146.679 1275.22L183.643 1273.87L182.306 1310.85L176.145 1310.63L177.085 1284.8L57.9239 1403.96L53.5657 1399.61L172.735 1280.44L146.899 1281.38Z" fill="url(#paint7_linear_2_111)"/>
<path d="M673.005 1375.89L672.785 1369.73L709.749 1368.39L708.404 1405.36L702.243 1405.14L703.191 1379.31L584.03 1498.48L579.672 1494.13L698.841 1374.95L673.005 1375.89Z" fill="url(#paint8_linear_2_111)"/>
<path d="M315.438 945.853L315.218 939.692L352.191 938.346L350.845 975.312L344.685 975.101L345.624 949.272L226.463 1068.44L222.114 1064.08L341.283 944.905L315.438 945.853Z" fill="url(#paint9_linear_2_111)"/>
<path d="M222.596 1241.73L226.421 1136.89L-257.313 1620.65L-275 1602.97L208.768 1119.17L103.884 1123.01L102.995 1098L253.053 1092.53L247.603 1242.63L222.596 1241.73Z" fill="url(#paint10_linear_2_111)"/>
</g>
<path d="M627.307 814.786L840.952 807L833.201 1020.68L797.59 1019.42L803.032 870.143L114.327 1558.9L89.1506 1533.72L777.906 844.923L628.568 850.398L627.307 814.786Z" fill="white" fill-opacity="0.9"/>
<path d="M481.659 1284.98L480.61 1255.38L658.221 1248.91L651.773 1426.56L622.171 1425.5L626.698 1301.41L54.1495 1874L33.2133 1853.06L605.813 1280.44L481.659 1284.98Z" fill="white" fill-opacity="0.9"/>
<path d="M724.931 1360.13L724.415 1345.75L810.639 1342.61L807.508 1428.85L793.139 1428.34L795.339 1368.09L517.388 1646.06L507.233 1635.89L785.193 1357.92L724.931 1360.13Z" fill="white" fill-opacity="0.9"/>
<path d="M355.779 1350.8L355.271 1336.43L441.496 1333.29L438.365 1419.53L423.996 1419.01L426.187 1358.77L148.244 1636.73L138.089 1626.58L416.049 1348.59L355.779 1350.8Z" fill="white" fill-opacity="0.9"/>
<path d="M201.042 892.138L200.526 877.768L286.75 874.628L283.619 960.858L269.25 960.35L271.45 900.11L-6.50123 1178.07L-16.6562 1167.91L261.304 889.929L201.042 892.138Z" fill="white" fill-opacity="0.9"/>
<path d="M799.562 1089.43L799.308 1082.14L843.059 1080.54L841.468 1124.3L834.174 1124.04L835.291 1093.47L694.254 1234.53L689.101 1229.36L830.146 1088.31L799.562 1089.43Z" fill="white" fill-opacity="0.9"/>
<path d="M295.805 1218.86L295.543 1211.57L339.294 1209.97L337.712 1253.74L330.417 1253.47L331.534 1222.91L190.489 1363.96L185.336 1358.8L326.389 1217.74L295.805 1218.86Z" fill="white" fill-opacity="0.9"/>
<path d="M918.503 1330.73L918.249 1323.44L962 1321.85L960.409 1365.6L953.114 1365.35L954.231 1334.78L813.195 1475.82L808.041 1470.67L949.086 1329.61L918.503 1330.73Z" fill="white" fill-opacity="0.9"/>
<path d="M495.292 821.726L495.03 814.439L538.79 812.84L537.199 856.602L529.904 856.339L531.021 825.771L389.985 966.824L384.823 961.662L525.876 820.609L495.292 821.726Z" fill="white" fill-opacity="0.9"/>
<path d="M385.398 1171.93L389.925 1047.84L-182.632 1620.43L-203.559 1599.49L369.04 1026.87L244.886 1031.41L243.837 1001.81L421.448 995.344L415 1172.98L385.398 1171.93Z" fill="white" fill-opacity="0.9"/>
</g>
<defs>
<linearGradient id="paint0_linear_2_111" x1="1018" y1="0.000105398" x2="-319.513" y2="385.003" gradientUnits="userSpaceOnUse">
<stop stop-color="#70A9A1"/>
<stop offset="1" stop-color="#CFE0C3"/>
</linearGradient>
<linearGradient id="paint1_linear_2_111" x1="-27.7003" y1="1251.04" x2="607.481" y2="1251.04" gradientUnits="userSpaceOnUse">
<stop stop-color="#CFE0C3"/>
<stop offset="0.3057" stop-color="#A6C8B4"/>
<stop offset="0.5868" stop-color="#89B7AA"/>
<stop offset="0.8277" stop-color="#76ADA3"/>
<stop offset="1" stop-color="#70A9A1"/>
</linearGradient>
<linearGradient id="paint2_linear_2_111" x1="-74.9548" y1="1570.83" x2="453.098" y2="1570.83" gradientUnits="userSpaceOnUse">
<stop stop-color="#CFE0C3"/>
<stop offset="0.3057" stop-color="#A6C8B4"/>
<stop offset="0.5868" stop-color="#89B7AA"/>
<stop offset="0.8277" stop-color="#76ADA3"/>
<stop offset="1" stop-color="#70A9A1"/>
</linearGradient>
<linearGradient id="paint3_linear_2_111" x1="325.528" y1="1514.12" x2="581.869" y2="1514.12" gradientUnits="userSpaceOnUse">
<stop stop-color="#CFE0C3"/>
<stop offset="0.3057" stop-color="#A6C8B4"/>
<stop offset="0.5868" stop-color="#89B7AA"/>
<stop offset="0.8277" stop-color="#76ADA3"/>
<stop offset="1" stop-color="#70A9A1"/>
</linearGradient>
<linearGradient id="paint4_linear_2_111" x1="13.6458" y1="1506.24" x2="269.988" y2="1506.24" gradientUnits="userSpaceOnUse">
<stop stop-color="#CFE0C3"/>
<stop offset="0.3057" stop-color="#A6C8B4"/>
<stop offset="0.5868" stop-color="#89B7AA"/>
<stop offset="0.8277" stop-color="#76ADA3"/>
<stop offset="1" stop-color="#70A9A1"/>
</linearGradient>
<linearGradient id="paint5_linear_2_111" x1="-117.092" y1="1118.73" x2="139.25" y2="1118.73" gradientUnits="userSpaceOnUse">
<stop stop-color="#CFE0C3"/>
<stop offset="0.3057" stop-color="#A6C8B4"/>
<stop offset="0.5868" stop-color="#89B7AA"/>
<stop offset="0.8277" stop-color="#76ADA3"/>
<stop offset="1" stop-color="#70A9A1"/>
</linearGradient>
<linearGradient id="paint6_linear_2_111" x1="479.181" y1="1229.56" x2="609.258" y2="1229.56" gradientUnits="userSpaceOnUse">
<stop stop-color="#CFE0C3"/>
<stop offset="0.3057" stop-color="#A6C8B4"/>
<stop offset="0.5868" stop-color="#89B7AA"/>
<stop offset="0.8277" stop-color="#76ADA3"/>
<stop offset="1" stop-color="#70A9A1"/>
</linearGradient>
<linearGradient id="paint7_linear_2_111" x1="53.5681" y1="1338.92" x2="183.645" y2="1338.92" gradientUnits="userSpaceOnUse">
<stop stop-color="#CFE0C3"/>
<stop offset="0.3057" stop-color="#A6C8B4"/>
<stop offset="0.5868" stop-color="#89B7AA"/>
<stop offset="0.8277" stop-color="#76ADA3"/>
<stop offset="1" stop-color="#70A9A1"/>
</linearGradient>
<linearGradient id="paint8_linear_2_111" x1="579.671" y1="1433.44" x2="709.749" y2="1433.44" gradientUnits="userSpaceOnUse">
<stop stop-color="#CFE0C3"/>
<stop offset="0.3057" stop-color="#A6C8B4"/>
<stop offset="0.5868" stop-color="#89B7AA"/>
<stop offset="0.8277" stop-color="#76ADA3"/>
<stop offset="1" stop-color="#70A9A1"/>
</linearGradient>
<linearGradient id="paint9_linear_2_111" x1="222.11" y1="1003.39" x2="352.187" y2="1003.39" gradientUnits="userSpaceOnUse">
<stop stop-color="#CFE0C3"/>
<stop offset="0.3057" stop-color="#A6C8B4"/>
<stop offset="0.5868" stop-color="#89B7AA"/>
<stop offset="0.8277" stop-color="#76ADA3"/>
<stop offset="1" stop-color="#70A9A1"/>
</linearGradient>
<linearGradient id="paint10_linear_2_111" x1="-275" y1="1356.59" x2="253.053" y2="1356.59" gradientUnits="userSpaceOnUse">
<stop stop-color="#CFE0C3"/>
<stop offset="0.3057" stop-color="#A6C8B4"/>
<stop offset="0.5868" stop-color="#89B7AA"/>
<stop offset="0.8277" stop-color="#76ADA3"/>
<stop offset="1" stop-color="#70A9A1"/>
</linearGradient>
</defs>
</svg>
