<svg width="705" height="676" viewBox="0 0 705 676" fill="none" xmlns="http://www.w3.org/2000/svg">
<path d="M468.815 86.8159C438.05 103.672 416.352 132.022 390.056 154.78C357.351 182.975 317.544 202.526 274.555 211.506C239.307 218.813 202.48 218.921 168.515 230.415C102.248 252.687 56.8625 318.787 55.7204 385.995C54.5784 453.203 94.4934 518.357 153.16 555.203C173.141 567.757 195.014 577.3 218.017 583.498C261.161 595.127 306.913 594.614 351.495 590.17C428.505 582.485 509.238 540.589 557.781 481.525C579.42 455.127 597.708 426.36 612.261 395.828C636.303 345.624 649.958 291.432 652.472 236.25C654.516 188.978 652.472 136.573 613.318 102.119C574.165 67.6639 514.708 61.6535 468.815 86.8159Z" fill="#CFE0C3" fill-opacity="0.05"/>
<path d="M517.59 624.98C573.186 624.98 618.256 613.352 618.256 599.007C618.256 584.663 573.186 573.035 517.59 573.035C461.994 573.035 416.924 584.663 416.924 599.007C416.924 613.352 461.994 624.98 517.59 624.98Z" fill="#F5F0F6"/>
<path d="M418.692 92.8535H121.437C114.468 92.8535 108.818 98.2656 108.818 104.942V264.573C108.818 271.249 114.468 276.661 121.437 276.661H418.692C425.661 276.661 431.311 271.249 431.311 264.573V104.942C431.311 98.2656 425.661 92.8535 418.692 92.8535Z" fill="white"/>
<path d="M431.311 104.942V109.723H108.818V104.942C108.818 101.73 110.146 98.648 112.51 96.3702C114.875 94.0925 118.084 92.804 121.437 92.7861H418.749C420.408 92.7914 422.049 93.1104 423.579 93.7246C425.109 94.3389 426.497 95.2364 427.664 96.3657C428.831 97.495 429.754 98.8339 430.38 100.306C431.006 101.777 431.322 103.353 431.311 104.942Z" fill="#FFCD00"/>
<path d="M418.692 92.8535H121.437C114.468 92.8535 108.818 98.2656 108.818 104.942V264.573C108.818 271.249 114.468 276.661 121.437 276.661H418.692C425.661 276.661 431.311 271.249 431.311 264.573V104.942C431.311 98.2656 425.661 92.8535 418.692 92.8535Z" stroke="#263238" stroke-width="1.52" stroke-linecap="round" stroke-linejoin="round"/>
<path d="M431.311 104.942V109.723H108.818V104.942C108.818 101.73 110.146 98.648 112.51 96.3702C114.875 94.0925 118.084 92.804 121.437 92.7861H418.749C420.408 92.7914 422.049 93.1104 423.579 93.7246C425.109 94.3389 426.497 95.2364 427.664 96.3657C428.831 97.495 429.754 98.8339 430.38 100.306C431.006 101.777 431.322 103.353 431.311 104.942V104.942Z" stroke="#263238" stroke-width="1.52" stroke-linecap="round" stroke-linejoin="round"/>
<path d="M145.039 101.282C145.042 101.894 144.855 102.493 144.502 103.004C144.149 103.514 143.645 103.913 143.056 104.149C142.466 104.385 141.816 104.448 141.189 104.33C140.562 104.212 139.985 103.919 139.532 103.487C139.079 103.055 138.77 102.504 138.645 101.903C138.519 101.303 138.582 100.681 138.826 100.115C139.07 99.5487 139.484 99.0648 140.015 98.7244C140.546 98.3839 141.171 98.2022 141.81 98.2021C142.664 98.2021 143.483 98.5261 144.088 99.1033C144.694 99.6804 145.035 100.464 145.039 101.282Z" fill="#263238"/>
<path d="M161.888 101.282C161.891 101.894 161.704 102.493 161.351 103.004C160.998 103.514 160.495 103.913 159.905 104.149C159.315 104.385 158.666 104.448 158.038 104.33C157.411 104.212 156.834 103.919 156.381 103.487C155.929 103.055 155.62 102.504 155.494 101.903C155.368 101.303 155.431 100.681 155.675 100.115C155.919 99.5487 156.333 99.0648 156.864 98.7244C157.396 98.3839 158.02 98.2022 158.659 98.2021C159.513 98.2021 160.332 98.5261 160.938 99.1033C161.543 99.6804 161.884 100.464 161.888 101.282Z" fill="#263238"/>
<path d="M175.507 104.374C177.29 104.374 178.736 102.99 178.736 101.281C178.736 99.5732 177.29 98.1885 175.507 98.1885C173.724 98.1885 172.279 99.5732 172.279 101.281C172.279 102.99 173.724 104.374 175.507 104.374Z" fill="#263238"/>
<path d="M224.32 123.108H133.14C130.266 123.108 127.937 125.339 127.937 128.092V170.11C127.937 172.863 130.266 175.094 133.14 175.094H224.32C227.193 175.094 229.522 172.863 229.522 170.11V128.092C229.522 125.339 227.193 123.108 224.32 123.108Z" stroke="#263238" stroke-width="1.52" stroke-linecap="round" stroke-linejoin="round"/>
<path d="M133.915 168.557H221.993" stroke="#263238" stroke-width="1.52" stroke-linecap="round" stroke-linejoin="round"/>
<path d="M150.679 158.629H140.457V168.421H150.679V158.629Z" fill="#FFCD00" stroke="#263238" stroke-width="1.52" stroke-miterlimit="10"/>
<path d="M165.638 145.758H155.417V168.557H165.638V145.758Z" fill="#FFCD00" stroke="#263238" stroke-width="1.52" stroke-miterlimit="10"/>
<path d="M182.487 149.675H172.265V168.786H182.487V149.675Z" fill="#FFCD00" stroke="#263238" stroke-width="1.52" stroke-miterlimit="10"/>
<path d="M200.196 130.644H189.974V168.124H200.196V130.644Z" fill="#FFCD00" stroke="#263238" stroke-width="1.52" stroke-miterlimit="10"/>
<path d="M217.89 130.941H207.668V168.422H217.89V130.941Z" fill="#FFCD00" stroke="#263238" stroke-width="1.52" stroke-miterlimit="10"/>
<path d="M355.471 177.782C371.255 177.782 384.05 165.524 384.05 150.404C384.05 135.284 371.255 123.027 355.471 123.027C339.687 123.027 326.892 135.284 326.892 150.404C326.892 165.524 339.687 177.782 355.471 177.782Z" fill="#FFCD00" stroke="#263238" stroke-width="1.52" stroke-miterlimit="10"/>
<path d="M357.812 167.476V170.285H353.018V167.476C351.049 167.02 349.308 165.921 348.094 164.368C346.879 162.815 346.267 160.905 346.363 158.967V157.697L351.792 157.13V158.481C351.792 161.087 353.201 162.668 355.415 162.668C355.896 162.706 356.379 162.644 356.832 162.486C357.285 162.329 357.697 162.079 358.04 161.754C358.383 161.43 358.649 161.038 358.819 160.606C358.988 160.173 359.059 159.711 359.024 159.25C359.024 156.752 356.585 154.604 353.709 152.322C350.297 149.62 346.899 146.406 346.899 141.868C346.899 137.33 349.127 134.264 353.018 133.345V130.522H357.812V133.318C361.746 134.196 364.03 137.37 364.03 141.895V142.813L358.601 143.367V142.422C358.601 139.72 357.488 138.235 355.514 138.235C353.54 138.235 352.426 139.41 352.426 141.652C352.426 144.15 354.936 146.244 357.756 148.58C361.111 151.282 364.566 154.496 364.566 159.034C364.648 160.976 364.018 162.884 362.784 164.426C361.55 165.969 359.791 167.048 357.812 167.476Z" fill="#263238"/>
<path d="M125.568 201.647H133.915" stroke="#263238" stroke-width="1.52" stroke-linecap="round" stroke-linejoin="round"/>
<path d="M125.568 217.099H133.915" stroke="#263238" stroke-width="1.52" stroke-linecap="round" stroke-linejoin="round"/>
<path d="M125.568 232.563H133.915" stroke="#263238" stroke-width="1.52" stroke-linecap="round" stroke-linejoin="round"/>
<path d="M125.568 248.015H133.915" stroke="#263238" stroke-width="1.52" stroke-linecap="round" stroke-linejoin="round"/>
<path d="M152.315 259.684V253.471" stroke="#263238" stroke-width="1.52" stroke-linecap="round" stroke-linejoin="round"/>
<path d="M165.54 259.684V253.471" stroke="#263238" stroke-width="1.52" stroke-linecap="round" stroke-linejoin="round"/>
<path d="M178.765 259.684V253.471" stroke="#263238" stroke-width="1.52" stroke-linecap="round" stroke-linejoin="round"/>
<path d="M192.004 259.684V253.471" stroke="#263238" stroke-width="1.52" stroke-linecap="round" stroke-linejoin="round"/>
<path d="M205.229 259.684V253.471" stroke="#263238" stroke-width="1.52" stroke-linecap="round" stroke-linejoin="round"/>
<path d="M218.454 259.684V253.471" stroke="#263238" stroke-width="1.52" stroke-linecap="round" stroke-linejoin="round"/>
<path d="M231.68 259.684V253.471" stroke="#263238" stroke-width="1.52" stroke-linecap="round" stroke-linejoin="round"/>
<path d="M244.919 259.684V253.471" stroke="#263238" stroke-width="1.52" stroke-linecap="round" stroke-linejoin="round"/>
<path d="M258.144 259.684V253.471" stroke="#263238" stroke-width="1.52" stroke-linecap="round" stroke-linejoin="round"/>
<path d="M271.369 259.684V253.471" stroke="#263238" stroke-width="1.52" stroke-linecap="round" stroke-linejoin="round"/>
<path d="M284.594 259.684V253.471" stroke="#263238" stroke-width="1.52" stroke-linecap="round" stroke-linejoin="round"/>
<path d="M297.834 259.684V253.471" stroke="#263238" stroke-width="1.52" stroke-linecap="round" stroke-linejoin="round"/>
<path d="M311.058 259.684V253.471" stroke="#263238" stroke-width="1.52" stroke-linecap="round" stroke-linejoin="round"/>
<path d="M324.283 259.684V253.471" stroke="#263238" stroke-width="1.52" stroke-linecap="round" stroke-linejoin="round"/>
<path d="M337.509 259.684V253.471" stroke="#263238" stroke-width="1.52" stroke-linecap="round" stroke-linejoin="round"/>
<path d="M350.24 259.684V253.471" stroke="#263238" stroke-width="1.52" stroke-linecap="round" stroke-linejoin="round"/>
<path d="M362.972 259.684V253.471" stroke="#263238" stroke-width="1.52" stroke-linecap="round" stroke-linejoin="round"/>
<path d="M375.689 259.684V253.471" stroke="#263238" stroke-width="1.52" stroke-linecap="round" stroke-linejoin="round"/>
<path d="M409.358 192.193V252.242C409.358 256.361 404.988 259.684 399.602 259.684H135.353C133.744 259.738 132.144 259.436 130.676 258.802C129.209 258.167 127.915 257.216 126.894 256.024C126.011 254.941 125.517 253.615 125.484 252.242V192.193C125.484 188.141 129.854 184.75 135.24 184.75H399.602C404.988 184.75 409.358 188.073 409.358 192.193Z" stroke="#FFCD00" stroke-width="1.52" stroke-linecap="round" stroke-linejoin="round"/>
<path d="M328.936 75.8894L244.58 184.751L212.321 226.377L177.073 204.875L133.943 259.684H133.323C131.97 259.685 130.641 259.348 129.467 258.706C128.292 258.064 127.313 257.139 126.625 256.024L175.085 194.421L210.333 215.883L234.457 184.818L322.422 71.3647L328.936 75.8894Z" fill="#70A9A1"/>
<path d="M307.534 77.2671L338.538 59.2632L329.966 90.4088L324.495 75.9976L307.534 77.2671Z" fill="#70A9A1"/>
<path d="M600.953 420.004H105.096L49.5164 467.344" stroke="#70A9A1" stroke-width="2.10526" stroke-linecap="round" stroke-linejoin="round"/>
<path d="M105.406 386.86V294.814" stroke="#70A9A1" stroke-width="2.10526" stroke-linecap="round" stroke-linejoin="round"/>
<path d="M105.406 414.655V396.854" stroke="#70A9A1" stroke-width="2.10526" stroke-linecap="round" stroke-linejoin="round"/>
<path d="M571.104 196.069C571.104 196.069 571.104 190.504 562.968 182.725C554.833 174.945 549.616 170.488 549.616 170.488C549.616 170.488 545.542 183.278 553.099 191.071C558.65 196.561 564.673 201.594 571.104 206.118V196.069Z" fill="#FFCD00"/>
<path d="M559.302 230.821C559.302 230.821 559.302 225.256 551.167 217.463C543.032 209.67 537.815 205.226 537.815 205.226C537.815 205.226 533.754 218.017 541.298 225.81C546.855 231.297 552.878 236.334 559.302 240.869V230.821Z" fill="#FFCD00"/>
<path d="M570.582 205.55C570.582 205.55 571.202 200.013 580.141 193.084C589.08 186.155 594.776 182.279 594.776 182.279C594.776 182.279 597.399 195.447 589.038 202.39C582.912 207.275 576.371 211.662 569.482 215.504L570.582 205.55Z" fill="#FFCD00"/>
<path d="M556.327 246.583C556.327 246.583 557.554 241.18 567.198 235.156C576.842 229.132 582.919 225.864 582.919 225.864C582.919 225.864 584.089 239.195 575.051 245.299C568.427 249.541 561.442 253.241 554.17 256.361L556.327 246.583Z" fill="#FFCD00"/>
<path d="M559.02 291.302C559.02 291.302 559.02 285.738 567.141 277.958C575.263 270.178 580.493 265.721 580.493 265.721C580.493 265.721 584.568 278.525 577.011 286.305C571.468 291.802 565.45 296.84 559.02 301.364V291.302Z" fill="#FFCD00"/>
<path d="M558.879 302.229C558.879 302.229 559.697 296.718 552.803 287.912C545.908 279.106 541.41 273.974 541.41 273.974C541.41 273.974 535.517 286.129 541.819 294.827C546.504 301.005 551.72 306.797 557.413 312.143L558.879 302.229Z" fill="#FFCD00"/>
<path d="M550.858 334.577C550.858 334.577 550.858 329.026 558.993 321.232C567.128 313.439 572.345 309.077 572.345 309.077C572.345 309.077 576.42 321.867 568.862 329.647C563.312 335.141 557.289 340.179 550.858 344.706V334.577Z" fill="#FFCD00"/>
<path d="M556.285 363.926C556.285 363.926 554.875 358.523 560.642 349.069C566.408 339.614 570.328 334.009 570.328 334.009C570.328 334.009 577.631 345.409 572.4 354.769C568.476 361.421 563.977 367.746 558.95 373.677L556.285 363.926Z" fill="#FFCD00"/>
<path d="M571.837 194.691C571.426 200.48 570.682 206.242 569.609 211.953C566.394 227.863 558.33 238.128 555.143 252.472C551.957 266.815 561.164 285.36 558.696 303.796C556.229 322.232 548.714 332.51 550.829 344.828C552.944 357.146 564.223 390.479 564.223 390.479" stroke="#263238" stroke-width="1.78978" stroke-linecap="round" stroke-linejoin="round"/>
<path d="M570.512 209.251L579.268 202.795" stroke="#263238" stroke-width="1.78978" stroke-linecap="round" stroke-linejoin="round"/>
<path d="M570.907 201.836L567.255 195.583" stroke="#263238" stroke-width="1.78978" stroke-linecap="round" stroke-linejoin="round"/>
<path d="M555.637 251.823C555.637 251.823 562.968 246.542 570.511 241.274" stroke="#263238" stroke-width="1.78978" stroke-linecap="round" stroke-linejoin="round"/>
<path d="M559.302 240.802C559.302 240.802 553.183 229.322 546.261 221.704" stroke="#263238" stroke-width="1.78978" stroke-linecap="round" stroke-linejoin="round"/>
<path d="M559.303 299.217C563.504 291.826 568.799 285.057 575.024 279.119" stroke="#263238" stroke-width="1.78978" stroke-linecap="round" stroke-linejoin="round"/>
<path d="M557.878 307.024C555.63 301.999 552.951 297.16 549.87 292.558C545.64 286.507 544.963 285.724 544.963 285.724" stroke="#263238" stroke-width="1.78978" stroke-linecap="round" stroke-linejoin="round"/>
<path d="M550.858 344.814C552.719 340.392 554.93 336.111 557.47 332.01C560.006 328.192 562.864 324.578 566.014 321.205" stroke="#263238" stroke-width="1.78978" stroke-linecap="round" stroke-linejoin="round"/>
<path d="M558.935 373.61C558.51 369.39 559.269 365.137 561.135 361.292C564.194 355.633 567.649 348.204 569.087 345.287" stroke="#263238" stroke-width="1.78978" stroke-linecap="round" stroke-linejoin="round"/>
<path d="M517.865 270.381C517.865 270.381 517.231 266.91 521.446 261.17C525.662 255.429 528.496 252.093 528.496 252.093C528.496 252.093 532.486 259.684 528.637 265.357C525.777 269.371 522.57 273.148 519.049 276.648L517.865 270.381Z" fill="#FFCD00"/>
<path d="M529.201 290.991C529.201 290.991 528.566 287.493 532.782 281.766C536.998 276.04 539.832 272.704 539.832 272.704C539.832 272.704 543.822 280.308 539.973 285.967C537.117 289.984 533.909 293.761 530.385 297.258L529.201 290.991Z" fill="#FFCD00"/>
<path d="M519.261 276.27C519.261 276.27 518.274 272.866 511.859 269.517C505.443 266.167 501.453 264.249 501.453 264.249C501.453 264.249 501.298 272.718 507.347 276.27C511.74 278.697 516.338 280.767 521.094 282.456L519.261 276.27Z" fill="#FFCD00"/>
<path d="M532.852 300.514C532.852 300.514 531.443 297.231 524.731 294.49C518.02 291.748 513.804 290.303 513.804 290.303C513.804 290.303 514.58 298.771 520.967 301.662C525.604 303.631 530.405 305.226 535.32 306.429L532.852 300.514Z" fill="#FFCD00"/>
<path d="M536.236 328.809C536.236 328.809 535.602 325.325 529.624 321.286C523.646 317.248 519.853 314.992 519.853 314.992C519.853 314.992 518.753 323.461 524.379 327.54C528.479 330.393 532.823 332.909 537.364 335.063L536.236 328.809Z" fill="#FFCD00"/>
<path d="M537.547 335.684C537.547 335.684 536.405 332.321 539.733 326.081C543.06 319.841 545.372 316.154 545.372 316.154C545.372 316.154 550.448 323.123 547.487 329.268C545.23 333.63 542.598 337.804 539.62 341.748L537.547 335.684Z" fill="#FFCD00"/>
<path d="M547.755 363.818C547.755 363.818 548.178 360.306 553.902 355.944C559.627 351.581 563.278 349.19 563.278 349.19C563.278 349.19 564.886 357.564 559.514 361.967C555.591 365.041 551.408 367.797 547.008 370.206L547.755 363.818Z" fill="#FFCD00"/>
<path d="M546.247 355.147C546.247 355.147 545.612 351.648 539.634 347.61C533.656 343.572 529.878 341.33 529.878 341.33C529.878 341.33 528.778 349.798 534.389 353.877C538.496 356.728 542.844 359.245 547.389 361.4L546.247 355.147Z" fill="#FFCD00"/>
<path d="M546.162 374.11C546.162 374.11 546.486 370.571 541.763 365.222C537.04 359.874 533.98 356.754 533.98 356.754C533.98 356.754 530.681 364.655 535.038 369.99C538.255 373.752 541.792 377.253 545.612 380.458L546.162 374.11Z" fill="#FFCD00"/>
<path d="M517.231 269.57C518.149 273.161 519.273 276.701 520.601 280.173C524.407 289.803 530.611 295.408 534.249 304.079C537.886 312.75 534.249 325.325 537.844 336.629C541.439 347.934 547.361 353.566 547.403 361.549C547.446 369.531 544.231 391.587 544.231 391.587" stroke="#263238" stroke-width="1.78978" stroke-linecap="round" stroke-linejoin="round"/>
<path d="M519.726 278.579L513.508 275.459" stroke="#263238" stroke-width="1.78978" stroke-linecap="round" stroke-linejoin="round"/>
<path d="M518.626 273.973L520.219 269.678" stroke="#263238" stroke-width="1.78978" stroke-linecap="round" stroke-linejoin="round"/>
<path d="M533.882 303.714C533.882 303.714 528.679 301.175 523.364 298.649" stroke="#263238" stroke-width="1.78978" stroke-linecap="round" stroke-linejoin="round"/>
<path d="M530.329 297.258C531.858 292.635 533.875 288.173 536.349 283.941" stroke="#263238" stroke-width="1.78978" stroke-linecap="round" stroke-linejoin="round"/>
<path d="M536.955 333.833C533.485 329.637 529.401 325.944 524.829 322.866" stroke="#263238" stroke-width="1.78978" stroke-linecap="round" stroke-linejoin="round"/>
<path d="M538.732 338.588C539.556 335.213 540.673 331.91 542.074 328.715C544.033 324.46 544.372 323.906 544.372 323.906" stroke="#263238" stroke-width="1.78978" stroke-linecap="round" stroke-linejoin="round"/>
<path d="M547.135 367.572C549.153 365.172 551.389 362.948 553.818 360.927C555.365 359.83 556.817 358.615 558.161 357.294" stroke="#263238" stroke-width="1.78978" stroke-linecap="round" stroke-linejoin="round"/>
<path d="M547.403 361.548C545.718 358.972 543.833 356.52 541.763 354.214C539.739 352.096 537.536 350.14 535.179 348.366" stroke="#263238" stroke-width="1.78978" stroke-linecap="round" stroke-linejoin="round"/>
<path d="M545.64 380.457C545.416 377.754 544.443 375.157 542.821 372.934C540.254 369.693 537.181 365.398 536.025 363.709" stroke="#263238" stroke-width="1.78978" stroke-linecap="round" stroke-linejoin="round"/>
<path d="M572.683 429.621H535.658C534.923 429.621 534.216 429.345 533.689 428.853C533.162 428.361 532.857 427.691 532.839 426.987L527.523 387.737H580.706L575.39 426.987C575.373 427.673 575.083 428.327 574.58 428.817C574.078 429.306 573.399 429.593 572.683 429.621Z" fill="#263238"/>
<path d="M580.282 394.369H527.579C526.482 394.373 525.428 393.96 524.649 393.22C523.869 392.481 523.427 391.476 523.42 390.425C523.438 389.376 523.88 388.375 524.653 387.632C525.426 386.889 526.47 386.462 527.565 386.441H580.282C580.827 386.439 581.368 386.541 581.873 386.739C582.377 386.938 582.836 387.23 583.222 387.599C583.609 387.968 583.915 388.406 584.124 388.889C584.334 389.372 584.441 389.889 584.441 390.412C584.439 390.933 584.33 391.449 584.12 391.93C583.91 392.411 583.603 392.848 583.217 393.216C582.831 393.583 582.373 393.874 581.869 394.072C581.366 394.27 580.826 394.371 580.282 394.369Z" fill="#263238"/>
<path d="M461.469 237.385C461.467 248.469 457.545 259.226 450.342 267.902C443.14 276.577 433.082 282.659 421.808 285.157H421.653C420.313 285.44 418.974 285.697 417.592 285.886C415.168 286.216 412.723 286.383 410.274 286.386C396.892 286.34 384.061 281.276 374.528 272.279C364.995 263.282 359.519 251.067 359.272 238.25C359.025 225.432 364.027 213.032 373.207 203.704C382.386 194.376 395.014 188.862 408.385 188.343C408.85 188.343 409.344 188.343 409.795 188.343C409.945 188.33 410.096 188.33 410.246 188.343C410.42 188.33 410.594 188.33 410.768 188.343C417.675 188.386 424.499 189.788 430.817 192.463C439.931 196.287 447.683 202.573 453.127 210.551C458.57 218.529 461.469 227.853 461.469 237.385Z" fill="#FFCD00"/>
<path opacity="0.4" d="M430.845 192.476C371.727 189.531 371.445 252.403 371.445 252.403C371.445 252.403 362.422 231.887 377.155 209.183C385.389 196.474 399.714 190.868 410.796 188.383C417.701 188.417 424.525 189.81 430.845 192.476Z" fill="white"/>
<path d="M461.469 237.385C461.468 248.497 457.528 259.279 450.295 267.965C443.061 276.652 432.962 282.728 421.653 285.197C417.921 286.02 414.104 286.432 410.274 286.426C396.697 286.666 383.576 281.73 373.798 272.702C364.02 263.675 358.386 251.296 358.135 238.29C357.885 225.283 363.038 212.714 372.462 203.347C381.886 193.98 394.807 188.583 408.385 188.343C409.005 188.343 409.64 188.343 410.274 188.343C423.851 188.347 436.87 193.515 446.47 202.711C456.07 211.907 461.465 224.379 461.469 237.385V237.385Z" stroke="#263238" stroke-width="1.52" stroke-linecap="round" stroke-linejoin="round"/>
<path d="M461.469 237.385C461.469 248.497 457.529 259.279 450.295 267.965C443.061 276.652 432.963 282.728 421.653 285.197C421.033 285.197 420.398 285.197 419.764 285.197C407.197 285.166 395.082 280.708 385.723 272.675C376.365 264.641 370.417 253.591 369.012 241.628C367.606 229.666 370.842 217.626 378.102 207.8C385.362 197.975 396.141 191.05 408.386 188.343C409.006 188.343 409.64 188.343 410.275 188.343C423.851 188.347 436.871 193.515 446.471 202.711C456.071 211.907 461.466 224.379 461.469 237.385V237.385Z" stroke="#263238" stroke-width="1.52" stroke-linecap="round" stroke-linejoin="round"/>
<path d="M427.913 268.03L429.238 273.217L420.384 275.283L419.058 270.11C411.135 270.11 404.776 265.181 402.745 257.266L402.139 254.916L411.91 251.526L412.53 253.97C413.757 258.779 417.07 261.088 421.201 260.116C422.108 259.981 422.974 259.659 423.738 259.172C424.502 258.685 425.147 258.046 425.628 257.297C426.109 256.549 426.415 255.709 426.525 254.836C426.635 253.963 426.545 253.078 426.263 252.242C425.079 247.622 419.552 244.732 413.151 241.747C405.579 238.235 397.768 233.778 395.625 225.391C393.539 217.206 396.161 210.385 402.915 207.009L401.589 201.822L410.43 199.756L411.755 204.929C419.439 204.821 425.163 209.67 427.264 218.043L427.701 219.745L417.944 223.135L417.451 221.258C416.154 216.166 413.419 214.019 409.781 214.869C406.143 215.72 404.635 218.381 405.692 222.514C406.877 227.133 412.474 229.916 418.805 233.022C426.291 236.655 434.187 240.991 436.33 249.365C438.487 257.428 435.047 264.613 427.913 268.03Z" stroke="#263238" stroke-width="1.52" stroke-miterlimit="10"/>
<path opacity="0.3" d="M427.913 268.03L429.238 273.217L420.384 275.283L419.058 270.11C411.135 270.11 404.776 265.181 402.745 257.266L402.139 254.916L411.91 251.526L412.53 253.97C413.757 258.779 417.07 261.088 421.201 260.116C422.108 259.981 422.974 259.659 423.738 259.172C424.502 258.685 425.147 258.046 425.628 257.297C426.109 256.549 426.415 255.709 426.525 254.836C426.635 253.963 426.545 253.078 426.263 252.242C425.079 247.622 419.552 244.732 413.151 241.747C405.579 238.235 397.768 233.778 395.625 225.391C393.539 217.206 396.161 210.385 402.915 207.009L401.589 201.822L410.43 199.756L411.755 204.929C419.439 204.821 425.163 209.67 427.264 218.043L427.701 219.745L417.944 223.135L417.451 221.258C416.154 216.166 413.419 214.019 409.781 214.869C406.143 215.72 404.635 218.381 405.692 222.514C406.877 227.133 412.474 229.916 418.805 233.022C426.291 236.655 434.187 240.991 436.33 249.365C438.487 257.428 435.047 264.613 427.913 268.03Z" fill="black"/>
<path d="M384.107 279.551L394.921 279.079" stroke="#263238" stroke-width="1.52" stroke-linecap="round" stroke-linejoin="round"/>
<path d="M378.904 276.107L388.336 275.337" stroke="#263238" stroke-width="1.52" stroke-linecap="round" stroke-linejoin="round"/>
<path d="M374.674 272.474L384.106 271.704" stroke="#263238" stroke-width="1.52" stroke-linecap="round" stroke-linejoin="round"/>
<path d="M373.377 203.375H381.456" stroke="#263238" stroke-width="1.52" stroke-linecap="round" stroke-linejoin="round"/>
<path d="M377.367 199.81L385.417 199.459" stroke="#263238" stroke-width="1.52" stroke-linecap="round" stroke-linejoin="round"/>
<path d="M382.414 196.231L390.902 195.461" stroke="#263238" stroke-width="1.52" stroke-linecap="round" stroke-linejoin="round"/>
<path opacity="0.3" d="M421.808 285.157H421.653C417.921 285.98 414.104 286.392 410.274 286.386C396.892 286.34 384.061 281.276 374.528 272.279C364.995 263.282 359.519 251.067 359.272 238.25C359.025 225.432 364.027 213.032 373.207 203.704C382.386 194.376 395.014 188.862 408.385 188.343C408.85 188.343 409.344 188.343 409.795 188.343C397.317 192.112 376.38 201.742 370.782 221.825C362.873 250.364 380.68 282.766 421.808 285.157Z" fill="black"/>
<path opacity="0.1" d="M461.469 237.385C461.467 248.469 457.545 259.226 450.343 267.902C443.14 276.577 433.082 282.659 421.808 285.157H421.653C420.314 285.44 418.974 285.697 417.592 285.886L430.846 192.436C439.958 196.266 447.708 202.557 453.147 210.54C458.585 218.524 461.478 227.852 461.469 237.385Z" fill="black"/>
<path d="M490.514 160.182C486.46 165.667 480.585 169.674 473.847 171.548C467.11 173.422 459.908 173.053 453.418 170.501L453.235 170.42C452.272 170.015 451.331 169.564 450.415 169.069C449.38 168.537 448.382 167.941 447.426 167.287C441.18 162.717 436.978 156.048 435.668 148.625C434.358 141.202 436.038 133.579 440.369 127.297C444.7 121.015 451.358 116.542 458.999 114.781C466.64 113.021 474.693 114.104 481.532 117.813L482.223 118.232C482.547 118.407 482.858 118.623 483.182 118.839C483.506 119.055 484.127 119.501 484.592 119.852C490.755 124.588 494.799 131.398 495.9 138.893C497 146.387 495.074 154.002 490.514 160.182Z" fill="#FFCD00"/>
<path opacity="0.4" d="M443.788 160.587C443.788 160.587 438.727 146.311 445.452 135.803C453.912 122.635 466.869 116.624 484.507 119.866C484.507 119.866 474.948 113.68 458.945 118.069C442.942 122.459 434.356 143.556 443.788 160.587Z" fill="white"/>
<path d="M490.514 160.196C486.456 165.676 480.579 169.677 473.842 171.546C467.105 173.416 459.906 173.042 453.418 170.487C451.278 169.649 449.243 168.58 447.356 167.3C441.071 162.682 436.869 155.935 435.611 148.443C434.353 140.952 436.134 133.283 440.589 127.01C445.045 120.736 451.837 116.333 459.573 114.703C467.309 113.074 475.403 114.341 482.195 118.245C482.505 118.42 482.83 118.623 483.14 118.839C489.832 123.395 494.366 130.306 495.748 138.058C497.13 145.81 495.248 153.771 490.514 160.196Z" stroke="#263238" stroke-width="1.52" stroke-linecap="round" stroke-linejoin="round"/>
<path d="M490.513 160.196C486.455 165.676 480.579 169.678 473.842 171.547C467.104 173.416 459.905 173.043 453.418 170.488L452.473 169.893C446.348 165.64 442.056 159.389 440.406 152.316C438.756 145.244 439.861 137.837 443.513 131.49C447.166 125.144 453.113 120.294 460.237 117.855C467.361 115.416 475.17 115.554 482.195 118.245C482.505 118.421 482.829 118.623 483.139 118.839C489.831 123.395 494.365 130.306 495.747 138.058C497.13 145.81 495.247 153.771 490.513 160.196Z" stroke="#263238" stroke-width="1.52" stroke-linecap="round" stroke-linejoin="round"/>
<path d="M462.752 164.139L461.526 167.138L456.394 165.206L457.62 162.195C455.716 160.91 454.337 159.032 453.72 156.881C453.103 154.73 453.285 152.44 454.236 150.404L454.8 149.053L460.863 150.633L460.285 152.065C459.143 154.847 459.918 157.089 462.315 157.994C462.813 158.231 463.358 158.362 463.914 158.377C464.469 158.393 465.022 158.292 465.532 158.083C466.043 157.873 466.501 157.56 466.873 157.165C467.245 156.769 467.523 156.301 467.687 155.793C468.787 153.091 467.109 149.836 465.036 146.23C462.583 141.962 460.356 137.154 462.344 132.291C464.332 127.429 468.082 125.052 472.636 125.646L473.877 122.648L478.995 124.579L477.768 127.564C481.603 130.076 482.661 134.317 480.673 139.247L480.264 140.22L474.201 138.639L474.652 137.545C475.865 134.601 475.301 132.616 473.242 131.819C471.184 131.022 469.421 131.819 468.434 134.236C467.335 136.938 469.097 140.152 471.085 143.799C473.468 148.107 475.78 152.889 473.792 157.737C473.038 159.882 471.516 161.702 469.495 162.874C467.474 164.045 465.086 164.494 462.752 164.139V164.139Z" stroke="#263238" stroke-width="1.52" stroke-miterlimit="10"/>
<path opacity="0.3" d="M462.752 164.139L461.526 167.138L456.394 165.206L457.62 162.195C455.716 160.91 454.337 159.032 453.72 156.881C453.103 154.73 453.285 152.44 454.236 150.404L454.8 149.053L460.863 150.633L460.285 152.065C459.143 154.847 459.918 157.089 462.315 157.994C462.813 158.231 463.358 158.362 463.914 158.377C464.469 158.393 465.022 158.292 465.532 158.083C466.043 157.873 466.501 157.56 466.873 157.165C467.245 156.769 467.523 156.301 467.687 155.793C468.787 153.091 467.109 149.836 465.036 146.23C462.583 141.962 460.356 137.154 462.344 132.291C464.332 127.429 468.082 125.052 472.636 125.646L473.877 122.648L478.995 124.579L477.768 127.564C481.603 130.076 482.661 134.317 480.673 139.247L480.264 140.22L474.201 138.639L474.652 137.545C475.865 134.601 475.301 132.616 473.242 131.819C471.184 131.022 469.421 131.819 468.434 134.236C467.335 136.938 469.097 140.152 471.085 143.799C473.468 148.107 475.78 152.889 473.792 157.737C473.038 159.882 471.516 161.702 469.495 162.874C467.474 164.045 465.086 164.494 462.752 164.139Z" fill="black"/>
<path opacity="0.3" d="M481.462 117.827C473.002 116.381 462.287 115.584 456.506 119.177C445.889 125.701 439.277 133.926 439.375 147.257C439.474 160.588 452.474 169.934 452.474 169.934L453.235 170.461C451.161 169.631 449.19 168.585 447.356 167.341C441.11 162.772 436.908 156.102 435.598 148.679C434.288 141.256 435.968 133.633 440.298 127.351C444.629 121.069 451.287 116.596 458.928 114.836C466.569 113.075 474.623 114.159 481.462 117.867V117.827Z" fill="black"/>
<path opacity="0.1" d="M490.513 160.182C486.459 165.667 480.584 169.674 473.847 171.548C467.11 173.422 459.908 173.053 453.418 170.501L453.235 170.42C452.272 170.015 451.331 169.564 450.415 169.069L484.507 119.866C490.679 124.589 494.738 131.391 495.854 138.883C496.97 146.375 495.06 153.993 490.513 160.182Z" fill="black"/>
<path d="M474.553 540.535C461.43 555.657 445.784 568.596 428.251 578.826C422.788 581.957 417.139 584.78 411.332 587.28C371.276 604.528 325.623 605.649 282.93 595.735C193.16 574.895 145.533 498.989 139.484 414.723C137.863 391.952 134.225 367.357 143.855 345.692C153.485 324.028 172.956 310.576 194.979 301.229C210.968 294.409 228.239 289.83 243.932 286.089C272.331 279.368 302.286 282.329 328.654 294.463C347.11 302.85 360.251 317.424 375.774 329.701C377.419 330.997 379.073 332.29 380.737 333.577C396.418 345.668 412.902 356.771 430.084 366.816C456.182 382.065 482.9 396.449 499.58 422.057C526.185 462.874 503.739 507.309 474.553 540.535Z" fill="#FFCD00"/>
<path opacity="0.4" d="M474.553 540.535C461.43 555.657 445.784 568.596 428.251 578.826C422.788 581.957 417.139 584.78 411.332 587.28C371.276 604.528 325.623 605.649 282.93 595.735C193.16 574.895 145.533 498.989 139.484 414.723C137.863 391.952 134.225 367.357 143.855 345.692C153.485 324.028 172.956 310.576 194.979 301.229C210.968 294.409 228.239 289.83 243.932 286.089C272.331 279.368 302.286 282.329 328.654 294.463C347.11 302.85 360.251 317.424 375.774 329.701C377.419 330.997 379.073 332.29 380.737 333.577C396.418 345.668 412.902 356.771 430.084 366.816C456.182 382.065 482.9 396.449 499.58 422.057C526.185 462.874 503.739 507.309 474.553 540.535Z" fill="white"/>
<path d="M380.681 333.577C379.017 332.298 377.363 331.002 375.718 329.687C360.209 317.383 347.04 302.85 328.598 294.463C302.228 282.335 272.275 279.375 243.876 286.089C206.555 294.962 160.267 308.631 143.771 345.706C134.141 367.316 137.779 391.951 139.414 414.723C145.533 498.989 193.161 574.895 282.931 595.735C331.771 607.08 384.445 603.974 428.252 578.825C445.785 568.595 461.43 555.657 474.554 540.535C503.739 507.309 526.185 462.873 499.608 422.057C482.943 396.395 456.225 382.065 430.113 366.816C412.901 356.774 396.389 345.671 380.681 333.577V333.577Z" stroke="#263238" stroke-width="1.52" stroke-miterlimit="10"/>
<path d="M244.694 483.835C237.22 486.002 229.967 488.814 223.023 492.236" stroke="#263238" stroke-width="1.52" stroke-linecap="round" stroke-linejoin="round"/>
<path d="M290.446 475.488C279.528 476.393 268.691 478.041 258.017 480.418" stroke="#263238" stroke-width="1.52" stroke-linecap="round" stroke-linejoin="round"/>
<path d="M280.928 473.327C280.928 473.327 238.8 449.853 187.958 468.667" stroke="#263238" stroke-width="1.52" stroke-linecap="round" stroke-linejoin="round"/>
<path opacity="0.1" d="M474.554 540.535C461.43 555.657 445.785 568.596 428.252 578.825C422.789 581.957 417.14 584.78 411.333 587.28C406.749 585.936 402.245 584.353 397.84 582.54C371.531 571.735 349.451 553.461 327.879 535.443C314.866 524.638 301.641 513.563 286.061 506.445C264.993 496.902 241.024 495.011 218.61 501.123C230.203 488.589 245.963 480.282 263.22 477.609C252.082 467.898 236.587 463.819 221.529 463.562C206.471 463.306 198.18 465.075 183.461 468.236C188.381 459.564 201.437 451.717 211.744 451.947C201.946 451.822 192.164 451.16 182.445 449.961C169.15 447.908 163.2 432.916 161.212 420.166C155.713 385.05 161.282 347.651 181.289 317.802C185.25 311.848 189.833 306.295 194.966 301.229C210.954 294.409 228.226 289.83 243.918 286.089C272.317 279.368 302.273 282.329 328.641 294.463C347.097 302.85 360.237 317.424 375.761 329.701C377.406 330.997 379.06 332.29 380.724 333.577C396.405 345.668 412.888 356.771 430.071 366.816C456.169 382.065 482.887 396.449 499.566 422.057C526.186 462.873 503.74 507.309 474.554 540.535Z" fill="black"/>
<path d="M489.245 539.508C497.15 545.804 505.421 551.666 514.018 557.067C530.782 558.147 523.267 577.556 523.267 577.556L508.914 586.402C508.914 586.402 484.339 567.696 470.916 561.632C457.494 555.567 489.245 539.508 489.245 539.508Z" fill="white"/>
<path opacity="0.3" d="M370.121 335.157C370.121 335.157 367.822 313.372 364.157 307.253L308.493 296.394V292.261C308.493 292.261 309.776 285.076 297.368 280.578C284.961 276.081 259.103 281.929 252.434 286.764C245.765 291.599 248.204 299.919 248.204 299.919C248.204 299.919 225.786 310.765 215.719 314.898C207.479 318.54 199.445 322.598 191.652 327.054C191.652 327.054 187.084 377.135 187.986 388.764C188.889 400.393 187.253 411.333 188.296 417.776C189.34 424.218 190.157 427.879 197.207 433.362C204.257 438.846 210.672 446.868 229.156 438.913L226.576 436.955L348.253 397.692L370.121 335.157Z" fill="black"/>
<path d="M370.121 335.157C370.121 335.157 367.822 313.372 364.157 307.253L308.493 296.394V292.261C308.493 292.261 309.776 285.076 297.368 280.578C284.961 276.081 259.103 281.929 252.434 286.764C245.765 291.599 248.204 299.919 248.204 299.919C248.204 299.919 225.786 310.765 215.719 314.898C207.479 318.54 199.445 322.598 191.652 327.054C191.652 327.054 187.084 377.135 187.986 388.764C188.889 400.393 187.253 411.333 188.296 417.776C189.34 424.218 190.157 427.879 197.207 433.362C204.257 438.846 210.672 446.868 229.156 438.913L226.576 436.955L348.253 397.692L370.121 335.157Z" fill="#FFCD00"/>
<path opacity="0.05" d="M370.121 335.157C370.121 335.157 367.822 313.372 364.157 307.253L308.493 296.394V292.261C308.493 292.261 309.776 285.076 297.368 280.578C284.961 276.081 259.103 281.929 252.434 286.764C245.765 291.599 248.204 299.919 248.204 299.919C248.204 299.919 225.786 310.765 215.719 314.898C207.479 318.54 199.445 322.598 191.652 327.054C191.652 327.054 187.084 377.135 187.986 388.764C188.889 400.393 187.253 411.333 188.296 417.776C189.34 424.218 190.157 427.879 197.207 433.362C204.257 438.846 210.672 446.868 229.156 438.913L226.576 436.955L348.253 397.692L370.121 335.157Z" fill="black"/>
<path opacity="0.1" d="M364.89 309.9H341.598C339.408 309.904 337.29 310.65 335.62 312.008C333.95 313.365 332.836 315.246 332.476 317.315L320.999 383.496C320.999 383.496 305.194 384.753 293.999 392.573C282.804 400.393 255.268 344.598 211.758 344.571C211.758 344.571 224.278 371.989 227.056 393.869C227.056 393.869 199.858 391.033 195.346 401.23C190.835 411.428 197.391 430.539 208.896 423.138C220.401 415.736 231.229 403.391 238.913 411.198C246.597 419.005 280.929 423.205 280.929 423.205L333.759 397.692L354.245 388.467L364.89 309.9Z" fill="black"/>
<path opacity="0.4" d="M290.939 277.094C290.939 277.094 304.164 280.605 306.307 284.86C308.451 289.114 308.225 299.879 308.225 299.879C305.016 307.074 300.153 313.482 293.999 318.626L284.129 299.879L285.018 321.138C285.018 321.138 266.294 318.153 258.342 312.426L250.404 306.686C250.404 306.686 246.978 295.881 247.471 292.221C247.965 288.561 262.247 281.132 262.247 281.132L290.939 277.094Z" fill="white"/>
<path d="M511.226 604.906C510.859 604.137 516.654 594.331 512.114 584.35C507.574 574.369 500.341 578.218 500.341 578.218C500.341 578.218 479.742 565.657 471.085 561.686C464.848 558.685 458.841 555.264 453.109 551.448L443.958 563.253L452.418 588.321L511.226 604.906Z" fill="#FFCD00"/>
<path d="M499.595 577.61L526.045 593.088C526.045 593.088 544.642 581.661 553.51 573.774C562.379 565.886 582.301 549.084 582.301 549.084L594.99 532.728C594.99 532.728 586.192 522.301 571.529 530.675C552.58 541.48 529.471 557.174 514.061 557.026C514.061 557.026 517.092 575.165 499.693 577.61" fill="#FFCD00"/>
<path d="M286.456 211.615C286.456 211.615 298.454 229.011 300.64 234.643C302.825 240.275 304.588 248.609 304.15 252.62C303.713 256.631 299.314 278.12 297.101 278.741L294.972 281.051L296.382 290.154C296.382 290.154 286.992 305.7 259.385 294.301C259.385 294.301 258.314 276.148 254.958 270.448C251.602 264.749 246.583 271.529 241.55 255.065C236.516 238.6 252.547 221.299 252.547 221.299L286.456 211.615Z" fill="white"/>
<path opacity="0.5" d="M583.471 527.65C583.471 527.65 569.865 529.919 565.452 537.631C561.039 545.343 552.565 559.673 549.675 566.602C546.785 573.531 522.886 590.265 522.886 590.265L526.059 593.088C526.059 593.088 545.516 581.567 557.26 570.614C569.005 559.66 594.905 532.107 594.905 532.107C594.905 532.107 593.044 530.338 583.471 527.65Z" fill="white"/>
<path opacity="0.5" d="M447.328 558.917L443.958 563.253L454.307 583.809L511.226 603.407L513.862 595.425C513.862 595.425 514.737 587.321 494.758 581.162C474.779 575.003 462.597 570.938 456.915 566.71C451.233 562.483 447.328 558.917 447.328 558.917Z" fill="white"/>
<path d="M259.428 406.241C259.428 406.241 242.001 403.729 233.866 417.384C225.73 431.039 226.562 436.955 226.562 436.955C226.562 436.955 238.081 446.976 253.915 446.409C269.748 445.842 292.801 428.473 300.315 422.813C307.83 417.154 326.78 400.96 339.709 404.31L341.119 392.6C341.119 392.6 339.85 387.346 328.796 388.764C317.742 390.182 313.4 396.219 309.832 396.219C306.265 396.219 302.896 392.937 295.733 404.661C295.719 404.661 270.58 408.929 259.428 406.241Z" fill="white"/>
<path d="M282.071 236.628C282.442 238.817 282.969 240.979 283.65 243.098C283.905 244.133 284.385 245.104 285.06 245.948C286.385 247.298 288.528 247.65 290.488 247.933C290.812 247.955 291.119 248.079 291.362 248.284C291.52 248.526 291.594 248.81 291.574 249.095C291.562 251.222 290.895 253.299 289.656 255.065" stroke="#263238" stroke-width="1.52" stroke-linecap="round" stroke-linejoin="round"/>
<path opacity="0.1" d="M459.016 544.911L447.328 558.863C447.328 558.863 460.158 570.222 473.44 574.436C486.721 578.65 509.971 586.592 513.862 592.71L512.368 585.43C512.368 585.43 476.006 564.063 467.659 558.958C465.191 557.407 463.129 555.334 461.63 552.899C460.131 550.463 459.237 547.73 459.016 544.911Z" fill="black"/>
<path opacity="0.1" d="M499.595 577.61L522.873 590.265C522.873 590.265 534.364 582.729 540.003 577.178C545.643 571.627 552.594 565.468 556.922 553.028C562.83 535.835 579.749 527.65 579.749 527.65C579.749 527.65 556.217 538.266 543.965 546.559C531.713 554.852 519.771 558.363 512.834 557.796C512.763 557.837 518.333 574.72 499.595 577.61Z" fill="black"/>
<path d="M273.865 258.131C273.865 258.131 283.016 265.006 292.518 262.426C292.518 262.426 283.551 279.444 273.865 258.131Z" fill="white" stroke="#263238" stroke-width="1.52" stroke-linecap="round" stroke-linejoin="round"/>
<path d="M273.527 243.274C273.794 245.165 273.188 246.799 272.201 246.934C271.214 247.069 270.185 245.583 269.917 243.733C269.649 241.883 270.241 240.208 271.243 240.073C272.244 239.938 273.315 241.383 273.527 243.274Z" fill="#263238"/>
<path d="M293.449 239.83C293.703 241.734 293.111 243.368 292.124 243.49C291.137 243.611 290.093 242.139 289.84 240.302C289.586 238.465 290.164 236.764 291.165 236.642C292.166 236.52 293.181 237.939 293.449 239.83Z" fill="#263238"/>
<path d="M272.117 235.251C272.117 235.251 266.787 232.617 262.995 238.263" stroke="#263238" stroke-width="1.52" stroke-linecap="round" stroke-linejoin="round"/>
<path d="M285.778 231.739C285.778 231.739 291.418 227.106 294.675 231.739" stroke="#263238" stroke-width="1.52" stroke-linecap="round" stroke-linejoin="round"/>
<path d="M254.013 252.634C254.013 252.634 250.587 247.785 246.963 247.934C243.34 248.082 241.902 252.944 243.199 257.645C244.496 262.345 249.896 268.909 253.985 268.288C256.291 268.003 258.396 266.881 259.864 265.154" stroke="#263238" stroke-width="1.52" stroke-linecap="round" stroke-linejoin="round"/>
<path d="M286.864 215.532C290.713 218.598 294.788 221.934 296.734 226.445C298.454 230.281 298.835 234.549 300.414 238.425C302.092 242.571 303.925 246.907 304.065 251.432C303.991 255.618 303.419 259.782 302.359 263.844C301.774 267.366 300.902 270.839 299.751 274.23C297.848 279.079 294.337 282.064 289.628 284.36C286.202 286.035 280.492 288.412 276.783 286.17C274.626 284.819 271.383 280.956 268.69 277.404" stroke="#263238" stroke-width="1.52" stroke-linecap="round" stroke-linejoin="round"/>
<path d="M254.013 268.288C254.013 268.288 260.076 282.523 258.61 292.531" stroke="#263238" stroke-width="1.52" stroke-linecap="round" stroke-linejoin="round"/>
<path d="M252.462 250.243C253.269 249.671 253.909 248.909 254.319 248.032C254.729 247.154 254.896 246.19 254.803 245.232C254.577 243.044 252.998 241.018 253.308 238.83C253.568 237.782 253.976 236.773 254.521 235.832C255.342 234.015 255.704 232.038 255.576 230.061C255.449 228.085 254.836 226.166 253.788 224.459C253.788 224.459 273.047 225.324 282.071 219.827C291.094 214.33 297.975 200.269 292.519 193.557C287.062 186.844 276.431 196.001 268.55 197.014C260.668 198.027 232.639 202.309 228.169 212.655C223.7 223.001 230.51 226.715 230.721 236.588C230.933 246.461 230.933 265.167 246.343 263.452C246.343 263.452 240.577 256.307 244.581 248.946C247.302 245.853 252.462 250.243 252.462 250.243Z" fill="#263238"/>
<path d="M290.234 205.226C292.849 207.177 295.017 209.623 296.603 212.411C298.19 215.2 299.16 218.271 299.455 221.434C300.315 228.835 314.019 243.219 304.136 251.418C304.136 251.418 301.837 242.706 300.484 238.411C299.13 234.116 297.396 226.255 295.126 223.554C292.856 220.853 280.815 211.398 280.815 211.398L290.234 205.226Z" fill="#263238"/>
<path d="M255.789 292.221C255.789 292.221 265.292 298.217 282.945 298.46L285.017 321.138C285.017 321.138 265.165 319.692 250.403 306.686C250.403 306.686 246.413 296.57 247.471 292.221C248.528 287.872 258.017 283.563 258.017 283.563" stroke="#263238" stroke-width="1.52" stroke-linecap="round" stroke-linejoin="round"/>
<path d="M295.719 282.077L296.282 290.181C292.561 293.894 287.997 296.736 282.945 298.487L293.998 318.652C293.998 318.652 307.181 308.82 308.492 298.487C308.492 298.487 308.605 287.912 306.307 284.886C304.009 281.861 295.634 280.443 295.634 280.443" stroke="#263238" stroke-width="1.52" stroke-linecap="round" stroke-linejoin="round"/>
<path opacity="0.8" d="M242.226 219.408C243.636 216.018 247.499 214.006 251.264 213.465C255.028 212.925 258.891 213.303 262.698 213.209C267.969 213.168 273.132 211.768 277.643 209.157C279.885 207.849 281.836 206.131 283.384 204.101C284.932 202.071 286.048 199.768 286.667 197.325" stroke="white" stroke-width="1.52" stroke-linecap="round" stroke-linejoin="round"/>
<path opacity="0.8" d="M233.132 218.746C235.514 211.817 243.241 207.536 250.84 206.928C254.605 206.617 258.412 207.036 262.12 206.617C265.828 206.199 269.776 204.713 271.736 201.62" stroke="white" stroke-width="1.52" stroke-linecap="round" stroke-linejoin="round"/>
<path d="M229.128 438.913C210.799 448.017 204.285 438.643 194.077 430.89C183.869 423.138 190.566 409.28 188.437 387.062C186.308 364.844 191.61 327.054 191.61 327.054C191.61 327.054 196.178 326.054 208.853 318.626C221.528 311.197 248.204 299.879 248.204 299.879" stroke="#263238" stroke-width="1.52" stroke-linecap="round" stroke-linejoin="round"/>
<path d="M247.288 405.282C247.288 405.282 244.383 396.463 236.178 396.233C227.972 396.003 215.029 399.542 205.808 416.249" stroke="#263238" stroke-width="1.52" stroke-linecap="round" stroke-linejoin="round"/>
<path d="M234.302 395.706C233.792 395.674 233.292 395.56 232.822 395.369C226.057 393.037 218.715 392.717 211.757 394.45" stroke="#263238" stroke-width="1.52" stroke-linecap="round" stroke-linejoin="round"/>
<path d="M207.034 339.115C221.966 354.917 229.241 375.825 236.135 396.085" stroke="#263238" stroke-width="1.52" stroke-linecap="round" stroke-linejoin="round"/>
<path d="M308.493 296.394C308.493 296.394 335.563 302.58 348.788 304.052C362.014 305.524 364.157 307.294 364.157 307.294L366.624 316.127" stroke="#263238" stroke-width="1.52" stroke-linecap="round" stroke-linejoin="round"/>
<path d="M434.639 311.764L342.444 315.154L334.915 405.984H350.706L430.762 388.818L440.828 313.939L434.639 311.764Z" fill="white"/>
<path d="M339.708 408.672L440.546 316.086L430.761 388.818L339.708 408.672Z" fill="#FFCD00"/>
<path opacity="0.7" d="M339.708 408.672L440.546 316.086L430.761 388.818L339.708 408.672Z" fill="white"/>
<path d="M339.708 406.241L347.773 318.626L440.828 313.939L430.761 388.818L339.708 406.241Z" stroke="#263238" stroke-width="1.52" stroke-linecap="round" stroke-linejoin="round"/>
<path d="M401.604 356.389C400.984 361.724 398.009 365.776 394.963 365.452C391.918 365.128 389.972 360.522 390.593 355.187C391.213 349.852 394.202 345.8 397.247 346.125C400.293 346.449 402.239 351.054 401.604 356.389Z" fill="#263238"/>
<path d="M430.761 388.818C430.761 388.818 473.369 387.656 486.693 396.084C500.017 404.512 507.842 446.774 505.995 469.221C504.148 491.669 488.075 543.182 488.075 543.182L457.282 509.794C457.282 509.794 442.111 456.957 450.387 436.266C450.387 436.266 409.5 438.467 393.398 433.632C393.398 433.632 378.975 411.009 354.245 403.526L430.761 388.818Z" fill="#263238"/>
<path d="M494.575 544.06C483.638 534.279 473.817 523.413 465.276 511.645C450.373 489.589 429.774 468.424 408.583 451.906C391.509 438.643 387.646 417.033 366.581 406.187C331.686 388.264 301.513 423.881 290.234 431.093C278.955 438.305 259.427 446.477 259.427 446.477C259.427 446.477 266.561 472.139 287.513 475.178C308.464 478.217 329.655 464.373 339.68 471.058C349.705 477.744 357.121 507.593 390.226 525.084C417.282 539.373 454.152 553.312 473.172 562.712C477.402 564.819 480.56 567.034 482.957 568.29C489.527 571.721 496.549 575.759 503.175 579.757L526.002 593.075C526.002 593.075 548.913 580.095 557.711 568.128C558.881 566.521 561.321 562.24 563.605 558.107C568.582 549.071 574.884 540.967 583.612 536.496C589.646 533.376 595.018 532.445 594.891 532.12C594.313 531.094 583.372 525.732 575.942 528.663C560.207 534.889 528.751 558.809 513.905 557.026C506.999 553.373 500.519 549.027 494.575 544.06V544.06Z" stroke="#263238" stroke-width="1.52" stroke-miterlimit="10"/>
<path d="M494.575 544.06C480.856 549.368 475.329 557.566 473.214 562.726C454.194 553.271 417.325 539.387 390.268 525.097C357.163 507.539 349.803 477.744 339.722 471.072C329.641 464.4 308.436 478.284 287.555 475.191C266.674 472.098 259.427 446.463 259.427 446.463C259.427 446.463 278.969 438.359 290.248 431.147C301.527 423.934 327.541 388.305 366.581 406.241C388.139 416.141 391.509 438.656 408.583 451.96C429.732 468.424 450.373 489.643 465.276 511.699C473.796 523.466 483.619 534.317 494.575 544.06Z" fill="#263238"/>
<path d="M391.481 429.553C391.481 429.553 380.921 408.997 363.988 405.012" stroke="white" stroke-width="1.52" stroke-linecap="round" stroke-linejoin="round"/>
<path d="M336.127 388.629C324.481 386.198 311.693 398.529 306.307 396.22C302.303 394.504 295.719 404.661 295.719 404.661C284.881 406.16 273.921 406.689 262.98 406.241C247.288 405.282 239.857 408.213 234.302 416.25L226.548 435.928C226.548 435.928 247.006 453.487 268.846 443.262C290.685 433.038 319.702 402.19 339.694 402.298" stroke="#263238" stroke-width="1.52" stroke-linecap="round" stroke-linejoin="round"/>
<path d="M498.706 577.083C498.706 577.083 517.824 578.582 513.341 556.702" stroke="#263238" stroke-width="1.52" stroke-miterlimit="10"/>
<path d="M588.8 543.182C587.39 545.883 569.865 560.173 554.765 572.667C554.765 572.477 558.995 564.846 560.743 561.591C564.761 554.406 575.138 534.7 594.891 532.107C597.697 533.728 588.8 543.182 588.8 543.182Z" fill="#263238"/>
<path d="M581.285 527.798C561.307 531.607 556.767 556.162 549.675 566.602C542.583 577.043 522.886 591.238 522.886 591.238" stroke="#263238" stroke-width="1.52" stroke-miterlimit="10"/>
<path d="M512.114 584.971C515.371 590.671 513.834 597.289 512.114 601.435C511.271 603.494 510.223 605.471 508.984 607.337C480.701 602.88 452.418 588.32 452.418 588.32L445.128 566.71L443.958 563.253L454.942 549.084" stroke="#263238" stroke-width="1.52" stroke-miterlimit="10"/>
<path d="M512.114 601.435C511.272 603.494 510.223 605.471 508.984 607.337C480.701 602.88 452.418 588.32 452.418 588.32L445.129 566.71C448.78 571.275 455.548 577.961 465.699 580.703C479.474 584.444 504.895 588.82 512.114 601.435Z" fill="#263238"/>
<path d="M334.915 402.824L342.444 315.154L434.639 311.764L440.828 313.939" stroke="#263238" stroke-width="1.52" stroke-linecap="round" stroke-linejoin="round"/>
<path d="M513.214 566.602C513.214 566.602 525.819 568.763 535.505 561.2C545.191 553.636 560.799 536.523 560.799 536.523" stroke="#263238" stroke-width="1.52" stroke-miterlimit="10"/>
<path d="M526.044 555.716C526.044 555.716 522.999 560.105 526.044 568.912" stroke="#263238" stroke-width="1.52" stroke-linecap="round" stroke-linejoin="round"/>
<path d="M534.983 551.516C533.597 555.893 534.006 560.612 536.125 564.711" stroke="#263238" stroke-width="1.52" stroke-linecap="round" stroke-linejoin="round"/>
<path d="M545.643 545.6C545.643 545.6 543.091 552.934 545.643 559.403" stroke="#263238" stroke-width="1.52" stroke-linecap="round" stroke-linejoin="round"/>
<path d="M457.437 547.261L447.328 558.917C447.328 558.917 457.508 569.574 471.875 574.004C486.242 578.434 511.903 585.957 514.032 593.966" stroke="#263238" stroke-width="1.52" stroke-miterlimit="10"/>
<path d="M394.316 352.481C393.752 352.481 393.295 352.912 393.295 353.443V359.516C393.295 360.047 393.752 360.478 394.316 360.478C394.879 360.478 395.336 360.047 395.336 359.516V353.443C395.336 352.912 394.879 352.481 394.316 352.481Z" fill="#70A9A1"/>
<path d="M397.081 355.026C396.568 355.026 396.152 355.417 396.152 355.901V358.009C396.152 358.492 396.568 358.884 397.081 358.884C397.593 358.884 398.009 358.492 398.009 358.009V355.901C398.009 355.417 397.593 355.026 397.081 355.026Z" fill="#70A9A1"/>
<path d="M396.152 353.72C396.152 353.236 396.568 352.844 397.081 352.844C397.593 352.844 398.009 353.236 398.009 353.72V353.898C398.009 354.382 397.593 354.774 397.081 354.774C396.568 354.774 396.152 354.382 396.152 353.898V353.72Z" fill="#70A9A1"/>
<path d="M399.788 355.472C399.275 355.472 398.859 355.864 398.859 356.347V356.526C398.859 357.009 399.275 357.401 399.788 357.401C400.3 357.401 400.716 357.009 400.716 356.526V356.347C400.716 355.864 400.3 355.472 399.788 355.472Z" fill="#70A9A1"/>
</svg>
